<svg xmlns="http://www.w3.org/2000/svg" viewBox="0 0 32 32">
  <path fill="#E30A17" d="M16 1.2C9.8 1.2 4.8 6.2 4.8 12.4c0 8.3 11.2 18.4 11.2 18.4s11.2-10.1 11.2-18.4C27.2 6.2 22.2 1.2 16 1.2Z"/>
  <circle cx="16" cy="12.4" r="7.7" fill="#FFFFFF"/>
  <circle cx="16" cy="12.4" r="6.7" fill="#E30A17"/>
  <path fill="#FFFFFF" fill-rule="evenodd" d="M15.1 8.7 A3.7 3.7 0 1 0 15.1 16.1 A3.7 3.7 0 1 0 15.1 8.7 Z M16.3 9.4 A3 3 0 1 1 16.3 15.4 A3 3 0 1 1 16.3 9.4 Z"/>
  <path fill="#FFFFFF" d="M20.3 12.4 18.89 11.94 18.89 10.46 18.02 11.66 16.61 11.2 17.48 12.4 16.61 13.6 18.02 13.14 18.89 14.34 18.89 12.86Z"/>
</svg>
