<svg xmlns="http://www.w3.org/2000/svg" viewBox="-200 -300 2000 1600" fill="none" stroke="#FFFFFF" stroke-width="1.5" opacity="0.16"><path d="M 1217.5 720.0 C 1215.7 722.9 1213.5 725.4 1212.4 728.1 C 1211.3 730.8 1211.3 733.4 1211.0 736.2 C 1210.7 739.1 1211.5 742.5 1210.7 745.4 C 1209.9 748.3 1208.8 751.5 1206.4 753.6 C 1204.0 755.7 1200.1 757.2 1196.4 758.0 C 1192.6 758.8 1187.8 758.3 1184.0 758.3 C 1180.2 758.4 1176.6 757.6 1173.6 758.1 C 1170.7 758.5 1168.7 759.4 1166.3 761.0 C 1163.8 762.6 1161.9 765.3 1159.2 767.5 C 1156.5 769.8 1153.4 772.6 1150.0 774.4 C 1146.6 776.2 1142.6 777.7 1138.7 778.3 C 1134.9 779.0 1130.7 778.9 1126.8 778.5 C 1122.9 778.0 1119.0 777.0 1115.4 775.6 C 1111.9 774.2 1108.4 772.3 1105.7 770.0 C 1103.1 767.6 1100.8 764.6 1099.5 761.4 C 1098.2 758.2 1098.1 754.3 1098.1 750.9 C 1098.1 747.6 1099.3 744.0 1099.5 741.1 C 1099.7 738.2 1100.2 735.8 1099.3 733.5 C 1098.5 731.2 1096.5 729.5 1094.5 727.2 C 1092.5 725.0 1089.2 722.6 1087.5 720.0 C 1085.7 717.4 1084.0 714.2 1084.0 711.4 C 1084.0 708.6 1085.5 705.7 1087.3 703.3 C 1089.2 700.9 1092.6 699.0 1094.9 697.0 C 1097.2 694.9 1099.6 693.3 1101.2 690.9 C 1102.8 688.6 1103.4 685.8 1104.4 682.6 C 1105.5 679.5 1105.9 675.4 1107.6 672.1 C 1109.3 668.8 1111.5 665.2 1114.6 663.1 C 1117.7 661.0 1122.0 659.8 1126.1 659.6 C 1130.1 659.5 1134.9 660.9 1138.8 662.3 C 1142.8 663.6 1146.6 666.0 1150.0 667.8 C 1153.4 669.6 1156.2 671.5 1159.1 673.1 C 1161.9 674.6 1164.4 675.8 1167.0 677.1 C 1169.6 678.4 1171.9 679.5 1174.5 680.6 C 1177.0 681.7 1179.3 682.8 1182.1 683.7 C 1185.0 684.6 1187.9 685.3 1191.4 686.0 C 1195.0 686.8 1199.3 687.2 1203.2 688.3 C 1207.2 689.4 1212.1 690.6 1215.4 692.7 C 1218.6 694.7 1221.7 697.6 1223.0 700.6 C 1224.2 703.5 1223.8 707.3 1222.9 710.5 C 1222.0 713.8 1219.2 717.1 1217.5 720.0 Z"/><path d="M 1270.2 720.0 C 1267.4 725.3 1265.2 729.8 1264.3 734.8 C 1263.4 739.9 1265.0 745.2 1264.7 750.6 C 1264.5 756.0 1265.3 762.3 1263.0 767.2 C 1260.8 772.2 1256.6 777.1 1251.2 780.3 C 1245.9 783.5 1237.7 785.0 1230.8 786.3 C 1224.0 787.5 1216.1 786.9 1210.1 787.8 C 1204.0 788.7 1199.1 789.3 1194.5 791.6 C 1189.9 793.9 1186.7 797.8 1182.4 801.7 C 1178.0 805.5 1173.7 811.0 1168.3 815.0 C 1163.0 819.0 1156.6 823.1 1150.0 825.7 C 1143.4 828.3 1135.9 830.0 1128.6 830.7 C 1121.3 831.5 1113.6 831.3 1106.3 830.3 C 1099.0 829.3 1091.4 827.6 1085.0 824.5 C 1078.7 821.5 1072.4 817.4 1068.3 812.2 C 1064.2 807.0 1061.5 800.1 1060.3 793.5 C 1059.1 787.0 1060.5 779.3 1060.9 773.1 C 1061.3 766.9 1063.4 761.2 1062.7 756.5 C 1062.0 751.8 1060.3 748.6 1056.9 744.8 C 1053.5 741.1 1047.1 738.1 1042.3 734.0 C 1037.5 729.9 1031.1 725.0 1028.2 720.0 C 1025.4 715.0 1024.2 708.9 1025.3 703.8 C 1026.4 698.7 1030.9 693.7 1034.6 689.3 C 1038.3 684.8 1043.9 681.4 1047.4 677.1 C 1050.9 672.9 1053.4 668.9 1055.5 663.7 C 1057.5 658.5 1057.7 652.0 1059.7 646.0 C 1061.8 639.9 1063.7 632.4 1067.8 627.2 C 1072.0 622.1 1078.0 617.2 1084.6 614.8 C 1091.3 612.4 1099.9 612.2 1107.6 612.9 C 1115.2 613.6 1123.4 616.6 1130.5 619.0 C 1137.6 621.4 1144.0 624.7 1150.0 627.3 C 1156.0 629.9 1161.3 632.4 1166.5 634.7 C 1171.6 637.1 1176.3 639.4 1181.1 641.6 C 1185.8 643.7 1190.0 646.1 1194.9 647.7 C 1199.8 649.4 1204.5 650.7 1210.6 651.7 C 1216.6 652.6 1223.7 652.4 1231.4 653.2 C 1239.1 654.0 1248.8 654.3 1256.6 656.5 C 1264.5 658.7 1273.3 661.9 1278.3 666.4 C 1283.4 670.9 1286.5 677.4 1287.0 683.5 C 1287.5 689.6 1284.1 696.9 1281.3 702.9 C 1278.5 709.0 1273.1 714.7 1270.2 720.0 Z"/><path d="M 1319.4 720.0 C 1316.7 727.6 1316.9 734.2 1316.8 741.7 C 1316.7 749.2 1319.9 757.4 1319.1 765.1 C 1318.4 772.8 1317.1 781.4 1312.3 787.8 C 1307.6 794.3 1299.0 799.8 1290.6 803.8 C 1282.1 807.7 1270.6 809.2 1261.6 811.6 C 1252.7 813.9 1243.9 814.7 1236.6 817.8 C 1229.4 820.9 1224.3 824.9 1218.3 830.0 C 1212.4 835.1 1207.5 842.2 1200.8 848.3 C 1194.2 854.4 1186.8 861.4 1178.3 866.5 C 1169.8 871.6 1160.0 875.9 1150.0 878.9 C 1140.0 881.9 1129.0 883.8 1118.2 884.6 C 1107.4 885.4 1095.7 885.6 1085.1 883.7 C 1074.6 881.8 1063.2 878.8 1054.8 873.3 C 1046.3 867.8 1038.7 859.6 1034.2 850.7 C 1029.8 841.8 1028.8 829.8 1028.2 819.9 C 1027.7 809.9 1031.0 799.1 1031.0 790.9 C 1031.0 782.7 1031.6 776.5 1028.1 770.9 C 1024.6 765.3 1017.5 762.2 1010.0 757.3 C 1002.5 752.4 990.7 747.9 983.3 741.6 C 975.9 735.4 968.1 727.6 965.4 720.0 C 962.7 712.4 964.3 703.7 967.2 696.3 C 970.0 688.8 977.5 682.1 982.5 675.4 C 987.4 668.7 993.3 663.1 996.9 656.0 C 1000.5 649.0 1001.8 641.4 1004.2 633.1 C 1006.6 624.8 1007.3 614.7 1011.3 606.3 C 1015.4 597.9 1020.8 588.8 1028.6 582.9 C 1036.3 577.1 1047.1 573.1 1057.6 571.3 C 1068.1 569.5 1080.6 570.8 1091.5 572.3 C 1102.3 573.7 1113.2 577.1 1122.9 579.8 C 1132.7 582.5 1141.6 585.6 1150.0 588.6 C 1158.4 591.6 1166.2 594.7 1173.6 597.9 C 1181.0 601.1 1187.5 604.8 1194.5 607.6 C 1201.5 610.4 1207.5 613.3 1215.5 614.6 C 1223.4 616.0 1231.8 615.8 1242.3 615.8 C 1252.8 615.8 1266.0 613.9 1278.5 614.6 C 1291.0 615.3 1306.5 616.2 1317.4 620.3 C 1328.2 624.4 1338.6 631.3 1343.5 639.1 C 1348.4 647.0 1348.4 658.1 1346.7 667.6 C 1344.9 677.1 1337.5 687.5 1332.9 696.2 C 1328.4 705.0 1322.1 712.4 1319.4 720.0 Z"/><path d="M 1367.8 720.0 C 1366.4 729.7 1369.8 738.8 1370.4 748.6 C 1371.1 758.5 1373.9 769.4 1371.5 779.0 C 1369.2 788.6 1363.8 798.5 1356.1 806.1 C 1348.4 813.7 1335.9 819.3 1325.3 824.5 C 1314.7 829.6 1302.3 832.3 1292.6 836.9 C 1282.9 841.5 1274.9 845.9 1267.1 852.2 C 1259.4 858.5 1253.7 866.7 1246.0 874.5 C 1238.3 882.4 1230.6 891.8 1221.1 899.3 C 1211.5 906.8 1200.4 913.9 1188.5 919.6 C 1176.7 925.2 1163.5 929.6 1150.0 933.1 C 1136.5 936.6 1121.8 939.7 1107.4 940.5 C 1093.0 941.3 1077.1 941.6 1063.6 938.0 C 1050.1 934.4 1036.1 928.0 1026.5 918.7 C 1017.0 909.3 1010.2 895.2 1006.5 882.0 C 1002.8 868.8 1004.6 852.0 1004.4 839.4 C 1004.2 826.8 1007.6 815.0 1005.2 806.2 C 1002.8 797.5 998.3 792.6 989.9 786.9 C 981.5 781.2 966.8 778.1 954.8 772.0 C 942.9 765.9 927.0 758.8 918.1 750.1 C 909.3 741.4 903.1 730.2 901.8 720.0 C 900.4 709.8 905.7 698.7 910.2 688.9 C 914.6 679.0 923.2 670.3 928.3 660.9 C 933.5 651.6 937.6 642.8 940.9 632.6 C 944.2 622.5 944.6 610.8 948.3 599.8 C 952.0 588.9 955.6 576.2 963.1 566.7 C 970.5 557.2 981.3 548.5 993.2 543.1 C 1005.1 537.6 1020.5 535.3 1034.5 534.1 C 1048.4 532.9 1063.5 534.6 1077.1 535.9 C 1090.6 537.2 1103.5 539.6 1115.6 542.1 C 1127.8 544.7 1139.2 547.5 1150.0 551.0 C 1160.8 554.5 1170.7 559.1 1180.3 563.1 C 1189.9 567.0 1198.0 572.1 1207.6 574.6 C 1217.3 577.1 1226.0 578.5 1238.1 578.2 C 1250.2 577.9 1264.4 574.3 1280.4 572.8 C 1296.4 571.3 1316.9 567.8 1333.9 569.2 C 1350.8 570.7 1370.4 574.3 1382.2 581.6 C 1394.1 589.0 1402.4 601.4 1405.1 613.4 C 1407.7 625.5 1402.5 641.1 1398.0 653.9 C 1393.6 666.7 1383.4 679.3 1378.4 690.3 C 1373.3 701.4 1369.1 710.3 1367.8 720.0 Z"/><path d="M 1417.2 720.0 C 1417.7 731.8 1423.1 743.6 1423.4 755.5 C 1423.7 767.5 1423.8 780.6 1418.9 791.7 C 1414.1 802.7 1404.3 813.2 1394.3 822.1 C 1384.4 830.9 1370.4 837.4 1359.3 844.7 C 1348.3 852.1 1337.5 858.1 1328.2 866.1 C 1318.9 874.2 1312.0 883.5 1303.4 893.1 C 1294.8 902.8 1287.0 914.3 1276.8 924.0 C 1266.5 933.8 1254.8 943.6 1241.8 951.7 C 1228.8 959.8 1214.1 966.5 1198.8 972.8 C 1183.5 979.0 1167.1 984.8 1150.0 989.1 C 1132.9 993.3 1114.1 998.2 1096.2 998.4 C 1078.4 998.6 1058.4 997.3 1042.9 990.3 C 1027.4 983.3 1012.4 970.8 1003.1 956.4 C 993.8 942.1 989.7 921.1 987.0 904.0 C 984.3 886.9 988.2 867.5 986.7 853.9 C 985.1 840.4 985.1 830.5 977.8 822.6 C 970.5 814.7 957.3 812.2 942.8 806.6 C 928.3 801.0 906.2 797.0 890.7 789.1 C 875.2 781.2 858.3 770.5 849.7 759.0 C 841.1 747.5 838.7 732.9 839.2 720.0 C 839.7 707.1 847.5 693.8 852.6 681.4 C 857.6 668.9 864.8 657.6 869.2 645.2 C 873.7 632.8 875.6 620.1 879.3 606.9 C 883.1 593.7 885.0 578.8 891.7 566.1 C 898.4 553.5 907.5 540.4 919.5 531.0 C 931.5 521.6 947.8 514.5 963.6 509.7 C 979.5 504.8 997.8 503.2 1014.4 501.7 C 1031.0 500.3 1047.5 500.4 1063.2 500.9 C 1078.9 501.4 1093.9 502.3 1108.4 504.7 C 1122.9 507.0 1137.0 510.8 1150.0 515.1 C 1163.0 519.4 1174.7 526.2 1186.7 530.3 C 1198.6 534.3 1208.4 538.9 1221.5 539.6 C 1234.6 540.2 1247.9 537.3 1265.5 534.1 C 1283.0 531.0 1305.1 523.1 1326.7 520.5 C 1348.4 518.0 1375.6 514.9 1395.4 518.8 C 1415.1 522.7 1435.0 531.9 1445.4 544.0 C 1455.8 556.1 1458.6 575.0 1457.8 591.4 C 1456.9 607.8 1446.6 627.1 1440.4 642.6 C 1434.2 658.2 1424.5 672.0 1420.6 684.9 C 1416.7 697.8 1416.7 708.2 1417.2 720.0 Z"/><path d="M 1467.3 720.0 C 1468.9 733.8 1473.8 748.1 1472.6 761.9 C 1471.5 775.7 1467.2 790.1 1460.1 802.6 C 1453.1 815.2 1440.8 826.3 1430.5 837.2 C 1420.2 848.1 1408.2 857.2 1398.4 868.0 C 1388.6 878.7 1380.7 889.9 1371.7 901.8 C 1362.8 913.8 1355.3 927.6 1344.8 939.8 C 1334.2 952.0 1322.3 964.6 1308.6 975.2 C 1294.8 985.7 1278.7 994.6 1262.2 1003.1 C 1245.6 1011.7 1227.9 1019.2 1209.2 1026.6 C 1190.5 1034.0 1170.7 1042.7 1150.0 1047.6 C 1129.3 1052.6 1105.9 1058.2 1085.0 1056.3 C 1064.2 1054.3 1041.2 1048.1 1024.8 1035.9 C 1008.4 1023.6 994.9 1002.7 986.6 982.9 C 978.3 963.2 977.8 936.7 975.0 917.5 C 972.2 898.3 975.4 879.9 969.9 867.6 C 964.5 855.4 956.6 849.8 942.3 843.7 C 928.1 837.6 904.8 836.9 884.4 831.0 C 864.0 825.0 837.3 818.4 820.1 807.9 C 802.9 797.4 788.4 782.5 781.3 767.9 C 774.1 753.2 775.6 735.7 777.3 720.0 C 778.9 704.3 786.7 688.8 791.1 673.4 C 795.6 658.0 799.8 643.3 803.9 627.8 C 808.0 612.3 809.7 595.7 815.7 580.3 C 821.8 564.9 828.8 548.5 840.1 535.4 C 851.5 522.3 867.3 510.6 883.8 501.7 C 900.3 492.9 920.6 487.2 939.2 482.1 C 957.8 477.0 977.0 473.9 995.3 471.1 C 1013.6 468.2 1031.3 465.6 1049.0 465.0 C 1066.6 464.5 1084.4 465.0 1101.3 467.8 C 1118.1 470.6 1134.7 476.9 1150.0 481.8 C 1165.3 486.8 1178.3 494.8 1193.0 497.4 C 1207.7 500.1 1220.3 500.9 1238.1 497.7 C 1255.9 494.6 1276.1 485.1 1299.9 478.8 C 1323.6 472.5 1354.3 461.6 1380.6 459.7 C 1406.9 457.9 1437.9 459.0 1457.8 467.6 C 1477.8 476.1 1493.7 493.4 1500.5 511.2 C 1507.4 528.9 1503.3 553.8 1499.2 574.1 C 1495.2 594.4 1482.4 615.5 1476.3 633.1 C 1470.2 650.6 1464.3 664.9 1462.8 679.4 C 1461.3 693.9 1465.6 706.2 1467.3 720.0 Z"/><path d="M 1515.3 720.0 C 1516.9 735.6 1518.7 752.1 1515.8 767.5 C 1512.8 782.9 1505.2 798.2 1497.8 812.7 C 1490.4 827.1 1479.6 840.1 1471.2 854.2 C 1462.8 868.3 1455.3 882.1 1447.3 897.1 C 1439.3 912.1 1433.2 928.8 1423.3 944.1 C 1413.5 959.5 1402.4 975.6 1388.4 989.1 C 1374.4 1002.5 1357.0 1014.0 1339.3 1024.7 C 1321.6 1035.4 1302.0 1043.7 1282.1 1053.3 C 1262.2 1063.0 1242.0 1073.4 1220.0 1082.6 C 1198.0 1091.7 1174.2 1103.7 1150.0 1108.2 C 1125.8 1112.7 1097.8 1116.0 1074.8 1109.6 C 1051.7 1103.1 1027.7 1088.1 1011.5 1069.4 C 995.4 1050.7 985.2 1021.1 977.7 997.3 C 970.2 973.5 971.8 945.4 966.7 926.8 C 961.7 908.3 959.6 895.1 947.6 885.9 C 935.6 876.8 916.6 876.5 894.7 872.1 C 872.8 867.7 840.8 866.9 816.2 859.5 C 791.6 852.0 764.1 841.2 747.1 827.4 C 730.1 813.5 719.7 794.5 714.1 776.6 C 708.5 758.7 711.8 738.7 713.3 720.0 C 714.9 701.3 720.0 683.1 723.6 664.6 C 727.2 646.2 729.5 627.6 735.0 609.4 C 740.5 591.3 746.0 572.1 756.6 555.6 C 767.2 539.2 781.9 523.3 798.5 510.6 C 815.1 497.8 836.5 488.0 856.2 479.1 C 876.0 470.2 897.2 463.8 917.0 457.0 C 936.8 450.3 955.7 443.6 975.2 438.7 C 994.8 433.9 1014.4 428.8 1034.3 427.9 C 1054.1 427.0 1075.3 429.3 1094.6 433.0 C 1113.9 436.8 1132.4 446.0 1150.0 450.5 C 1167.6 455.0 1182.0 461.1 1200.2 460.0 C 1218.4 458.9 1235.8 452.1 1259.4 444.0 C 1283.0 435.9 1312.0 419.5 1341.8 411.3 C 1371.6 403.1 1409.3 393.2 1438.1 394.8 C 1467.0 396.4 1497.2 405.8 1514.7 420.9 C 1532.3 436.0 1540.9 462.2 1543.5 485.5 C 1546.2 508.9 1536.4 537.8 1530.8 560.9 C 1525.1 584.0 1513.9 605.3 1509.8 624.1 C 1505.7 642.9 1505.3 657.8 1506.2 673.7 C 1507.2 689.7 1513.8 704.4 1515.3 720.0 Z"/><path d="M 1558.3 720.0 C 1559.0 737.4 1557.2 755.2 1553.9 772.5 C 1550.6 789.7 1543.5 806.2 1538.4 823.5 C 1533.3 840.7 1528.2 857.6 1523.2 875.9 C 1518.1 894.2 1515.2 914.2 1507.9 933.2 C 1500.7 952.3 1492.6 973.1 1479.7 990.3 C 1466.8 1007.6 1449.2 1023.3 1430.6 1036.7 C 1412.0 1050.2 1389.5 1059.8 1368.1 1071.0 C 1346.7 1082.2 1324.9 1092.2 1302.2 1104.0 C 1279.4 1115.8 1256.8 1131.1 1231.4 1141.6 C 1206.1 1152.1 1177.5 1165.4 1150.0 1167.1 C 1122.5 1168.9 1090.9 1165.3 1066.5 1152.1 C 1042.2 1138.9 1019.5 1112.9 1004.2 1088.1 C 988.8 1063.2 982.2 1027.8 974.2 1002.9 C 966.2 978.1 966.2 953.7 956.2 938.7 C 946.2 923.8 934.4 918.6 914.1 913.4 C 893.8 908.3 863.1 911.8 834.5 908.0 C 805.8 904.1 768.8 900.6 742.2 890.4 C 715.5 880.2 690.7 864.1 674.8 846.6 C 658.9 829.1 651.9 806.5 646.8 785.4 C 641.7 764.3 643.6 741.7 644.3 720.0 C 645.0 698.3 647.0 676.6 651.1 655.2 C 655.3 633.9 659.5 611.8 669.1 591.9 C 678.7 572.0 692.2 552.2 708.8 535.7 C 725.3 519.1 747.7 505.3 768.5 492.7 C 789.3 480.2 812.6 470.8 833.4 460.4 C 854.2 450.0 873.4 439.9 893.4 430.4 C 913.4 420.9 932.1 409.7 953.1 403.2 C 974.2 396.6 997.2 391.5 1019.7 391.2 C 1042.3 390.9 1066.7 397.0 1088.5 401.4 C 1110.2 405.8 1129.8 415.9 1150.0 417.6 C 1170.2 419.4 1186.8 418.9 1209.5 411.8 C 1232.3 404.8 1256.7 388.1 1286.6 375.3 C 1316.5 362.5 1354.7 342.3 1389.1 335.2 C 1423.6 328.0 1464.9 324.3 1493.4 332.4 C 1522.0 340.5 1547.0 361.0 1560.4 383.5 C 1573.8 406.0 1574.6 439.7 1573.9 467.5 C 1573.3 495.2 1561.5 525.6 1556.5 550.1 C 1551.6 574.7 1545.2 595.4 1544.0 615.0 C 1542.9 634.7 1547.1 650.6 1549.5 668.1 C 1551.9 685.6 1557.6 702.6 1558.3 720.0 Z"/><path d="M 1595.5 720.0 C 1596.0 739.1 1593.6 757.9 1592.8 777.5 C 1591.9 797.1 1590.8 816.3 1590.5 837.4 C 1590.1 858.4 1592.6 881.1 1590.4 904.0 C 1588.3 926.9 1586.5 952.6 1577.3 974.6 C 1568.2 996.6 1553.5 1018.5 1535.4 1036.0 C 1517.3 1053.6 1492.2 1066.7 1468.8 1079.8 C 1445.5 1093.0 1419.8 1102.2 1395.5 1115.1 C 1371.2 1128.0 1348.7 1142.8 1323.3 1157.3 C 1297.9 1171.8 1272.0 1191.8 1243.1 1201.9 C 1214.2 1212.1 1180.3 1222.1 1150.0 1218.3 C 1119.7 1214.4 1086.1 1199.5 1061.4 1178.7 C 1036.7 1157.9 1017.1 1121.9 1002.1 1093.3 C 987.1 1064.7 982.4 1029.3 971.6 1007.1 C 960.8 985.0 954.6 969.4 937.2 960.2 C 919.7 951.1 895.6 954.0 866.9 952.2 C 838.1 950.4 798.1 954.5 764.8 949.5 C 731.5 944.4 693.7 935.9 666.8 921.9 C 640.0 907.9 618.7 886.8 603.6 865.6 C 588.4 844.4 581.8 818.8 576.1 794.5 C 570.4 770.3 568.9 744.8 569.5 720.0 C 570.0 695.2 571.9 669.7 579.4 645.9 C 586.9 622.1 598.5 598.0 614.7 577.4 C 630.8 556.7 654.2 538.3 676.3 522.1 C 698.4 505.9 725.0 493.6 747.3 480.1 C 769.6 466.6 790.2 454.6 809.9 441.1 C 829.7 427.7 845.8 411.8 865.8 399.2 C 885.7 386.6 906.3 372.5 929.7 365.5 C 953.1 358.5 980.7 356.2 1006.2 357.2 C 1031.7 358.1 1058.6 367.7 1082.6 371.0 C 1106.5 374.3 1126.8 380.8 1150.0 377.0 C 1173.2 373.1 1193.7 361.7 1221.9 347.7 C 1250.1 333.8 1283.2 308.2 1319.1 293.1 C 1355.1 278.1 1400.5 259.8 1437.4 257.5 C 1474.2 255.3 1514.4 263.0 1540.2 279.6 C 1566.1 296.2 1583.3 328.0 1592.4 357.3 C 1601.5 386.5 1596.7 424.5 1594.9 455.0 C 1593.0 485.4 1583.6 514.8 1581.0 539.9 C 1578.4 565.0 1577.9 585.1 1579.3 605.6 C 1580.8 626.1 1586.8 643.9 1589.5 662.9 C 1592.1 682.0 1594.9 700.9 1595.5 720.0 Z"/><path d="M 354.3 140.0 C 354.4 142.3 354.2 144.8 352.9 146.9 C 351.5 148.9 348.9 150.9 346.3 152.3 C 343.7 153.8 339.8 154.6 337.1 155.5 C 334.4 156.4 331.7 156.7 330.1 157.9 C 328.6 159.2 328.2 160.6 327.7 162.7 C 327.3 164.9 327.9 168.1 327.4 171.0 C 327.0 173.9 326.5 177.6 325.0 180.2 C 323.5 182.7 321.0 185.1 318.4 186.3 C 315.7 187.6 312.3 187.8 309.2 187.7 C 306.1 187.5 302.9 186.4 300.0 185.6 C 297.1 184.8 294.4 183.7 291.7 182.7 C 289.1 181.8 286.6 181.0 284.2 179.9 C 281.8 178.8 279.5 177.7 277.5 176.3 C 275.4 174.9 273.7 173.2 272.0 171.6 C 270.4 169.9 269.1 168.1 267.6 166.6 C 266.1 165.0 264.6 163.5 263.1 162.0 C 261.5 160.5 259.5 159.2 258.1 157.5 C 256.6 155.9 255.0 154.1 254.2 152.2 C 253.4 150.3 253.3 148.1 253.3 146.1 C 253.3 144.0 254.1 142.0 254.3 140.0 C 254.4 138.0 254.6 136.2 254.1 134.0 C 253.6 131.9 252.2 129.6 251.2 127.0 C 250.2 124.4 248.3 121.1 248.0 118.3 C 247.7 115.4 247.7 112.0 249.2 109.8 C 250.7 107.5 253.8 105.6 257.0 104.7 C 260.2 103.9 264.9 104.2 268.7 104.6 C 272.4 105.0 276.4 106.5 279.6 107.1 C 282.7 107.7 285.1 108.4 287.5 108.4 C 289.8 108.3 291.5 107.5 293.6 106.7 C 295.7 105.9 297.7 104.4 300.0 103.6 C 302.3 102.8 304.9 102.0 307.4 101.8 C 309.9 101.5 312.5 101.7 315.1 101.9 C 317.7 102.1 320.2 102.7 322.9 103.2 C 325.5 103.8 328.2 104.3 330.8 105.2 C 333.4 106.1 336.1 107.1 338.3 108.6 C 340.5 110.0 342.5 111.9 344.0 113.8 C 345.4 115.8 346.3 118.1 347.2 120.3 C 348.1 122.5 348.5 124.7 349.3 126.9 C 350.2 129.0 351.2 131.1 352.0 133.2 C 352.9 135.4 354.1 137.7 354.3 140.0 Z"/><path d="M 403.5 140.0 C 403.1 144.3 401.1 149.0 397.6 152.7 C 394.0 156.3 387.6 159.4 382.5 162.0 C 377.3 164.5 370.6 165.7 366.6 167.8 C 362.6 170.0 359.8 171.5 358.4 174.8 C 357.0 178.1 358.1 182.5 358.0 187.6 C 357.9 192.6 359.0 199.6 357.8 205.2 C 356.5 210.8 354.2 217.2 350.5 221.2 C 346.8 225.3 341.1 228.2 335.5 229.7 C 330.0 231.2 323.3 230.7 317.4 230.2 C 311.5 229.6 305.5 227.9 300.0 226.5 C 294.5 225.0 289.2 223.4 284.3 221.5 C 279.3 219.5 274.5 217.5 270.3 215.0 C 266.0 212.5 262.2 209.5 258.7 206.5 C 255.2 203.5 252.4 200.1 249.3 197.3 C 246.1 194.4 243.2 191.9 239.7 189.4 C 236.2 187.0 232.0 185.2 228.2 182.7 C 224.5 180.3 219.9 177.8 217.0 174.7 C 214.0 171.5 211.6 167.7 210.5 163.8 C 209.4 160.0 210.2 155.6 210.3 151.6 C 210.5 147.7 211.9 143.9 211.5 140.0 C 211.1 136.1 209.9 132.5 207.9 128.0 C 206.0 123.6 201.9 118.6 199.9 113.3 C 197.8 108.0 195.0 101.5 195.5 96.4 C 196.1 91.2 198.6 85.6 203.1 82.3 C 207.5 78.9 215.3 77.0 222.2 76.2 C 229.2 75.5 238.1 77.0 244.9 77.8 C 251.8 78.6 258.1 80.6 263.3 81.0 C 268.5 81.3 272.2 81.0 276.2 80.0 C 280.2 78.9 283.4 76.5 287.4 74.7 C 291.3 72.9 295.5 70.5 300.0 69.0 C 304.5 67.6 309.4 66.6 314.3 66.0 C 319.2 65.3 324.3 65.2 329.6 65.3 C 334.9 65.3 340.4 65.5 345.8 66.2 C 351.3 67.0 357.2 67.9 362.1 69.9 C 367.0 71.9 371.9 74.7 375.5 78.1 C 379.1 81.5 381.5 86.0 383.6 90.2 C 385.7 94.4 386.4 99.1 388.0 103.2 C 389.6 107.4 391.1 111.2 393.1 115.2 C 395.1 119.2 398.2 122.9 400.0 127.0 C 401.7 131.2 403.9 135.7 403.5 140.0 Z"/><path d="M 450.1 140.0 C 448.0 146.2 442.2 152.6 436.1 157.7 C 429.9 162.7 419.8 166.4 413.1 170.1 C 406.4 173.9 399.4 175.9 395.8 180.0 C 392.2 184.1 391.9 188.4 391.7 194.6 C 391.5 200.9 394.6 209.4 394.6 217.6 C 394.7 225.8 394.9 236.1 391.9 243.7 C 388.9 251.4 383.3 258.8 376.7 263.5 C 370.1 268.2 360.8 270.6 352.3 272.0 C 343.7 273.3 334.1 272.4 325.4 271.5 C 316.7 270.6 308.0 268.7 300.0 266.5 C 292.0 264.3 284.2 261.6 277.2 258.3 C 270.1 254.9 263.7 250.6 257.9 246.3 C 252.1 242.0 247.5 236.7 242.6 232.4 C 237.6 228.2 233.6 224.1 228.3 220.9 C 223.0 217.7 217.1 215.8 210.7 213.2 C 204.4 210.6 196.3 208.9 190.1 205.5 C 183.8 202.1 177.1 198.0 173.2 193.0 C 169.3 188.0 167.6 181.5 166.7 175.5 C 165.7 169.6 167.8 163.1 167.7 157.2 C 167.6 151.3 168.1 146.0 166.1 140.0 C 164.0 134.0 159.4 128.2 155.5 121.2 C 151.7 114.3 145.2 106.0 143.0 98.2 C 140.9 90.4 139.6 81.0 142.7 74.3 C 145.9 67.6 153.4 61.3 161.9 57.7 C 170.4 54.2 183.3 53.3 193.8 52.9 C 204.3 52.5 216.0 54.8 225.0 55.3 C 234.0 55.8 241.2 56.8 247.8 56.0 C 254.4 55.2 259.0 52.9 264.5 50.5 C 270.1 48.1 275.1 44.3 281.0 41.5 C 286.9 38.7 293.2 35.8 300.0 33.6 C 306.8 31.4 314.0 29.7 321.6 28.3 C 329.2 26.8 337.3 25.4 345.6 24.8 C 354.0 24.3 363.2 23.7 371.5 24.9 C 379.8 26.2 388.5 28.6 395.2 32.5 C 401.9 36.5 407.4 42.5 411.5 48.5 C 415.6 54.5 417.4 62.2 419.8 68.6 C 422.3 75.1 423.5 81.4 426.3 87.2 C 429.1 93.1 433.1 98.0 436.8 103.6 C 440.4 109.1 446.0 114.7 448.2 120.8 C 450.4 126.8 452.1 133.8 450.1 140.0 Z"/><path d="M 491.1 140.0 C 486.6 147.9 476.2 155.5 468.0 161.8 C 459.8 168.1 448.3 172.4 441.9 177.8 C 435.5 183.2 431.2 187.3 429.7 194.2 C 428.2 201.1 431.6 209.4 432.8 219.1 C 434.0 228.8 437.8 241.4 436.9 252.3 C 436.0 263.1 433.4 275.3 427.6 284.1 C 421.9 292.8 412.3 300.0 402.4 304.8 C 392.6 309.6 380.0 311.7 368.5 312.8 C 356.9 314.0 344.6 313.3 333.2 311.9 C 321.8 310.6 310.4 308.2 300.0 304.6 C 289.6 301.1 279.6 296.1 270.9 290.6 C 262.2 285.2 254.8 277.8 247.7 271.9 C 240.7 266.0 235.4 259.5 228.5 255.1 C 221.6 250.7 215.0 247.9 206.6 245.4 C 198.1 243.0 187.6 242.7 177.8 240.2 C 168.0 237.7 156.1 235.4 147.9 230.6 C 139.7 225.9 132.5 218.9 128.5 211.6 C 124.5 204.4 124.7 195.1 123.9 186.9 C 123.1 178.8 125.5 170.7 124.0 162.9 C 122.5 155.0 119.7 148.2 115.1 140.0 C 110.6 131.8 101.8 123.2 96.7 113.6 C 91.5 104.0 84.6 92.4 84.3 82.5 C 84.0 72.6 87.3 61.7 94.7 54.2 C 102.1 46.8 115.9 41.2 128.6 37.9 C 141.3 34.5 158.0 34.8 171.0 34.2 C 184.0 33.7 196.5 35.3 206.6 34.6 C 216.7 33.9 224.1 32.6 231.7 30.1 C 239.3 27.6 245.2 23.4 252.3 19.6 C 259.4 15.8 266.4 11.3 274.4 7.4 C 282.3 3.5 290.8 -0.1 300.0 -3.7 C 309.2 -7.2 319.1 -11.0 329.7 -13.9 C 340.4 -16.8 352.3 -20.4 363.9 -21.3 C 375.5 -22.3 388.6 -22.5 399.2 -19.6 C 409.8 -16.8 420.2 -11.0 427.6 -4.0 C 435.0 3.0 439.6 13.3 443.7 22.2 C 447.8 31.1 448.8 41.1 452.1 49.4 C 455.4 57.6 458.7 64.6 463.6 71.7 C 468.5 78.7 476.2 84.5 481.5 91.6 C 486.8 98.8 493.8 106.6 495.4 114.6 C 497.0 122.7 495.7 132.1 491.1 140.0 Z"/><path d="M 525.3 140.0 C 518.2 149.4 504.7 157.7 496.3 165.5 C 487.8 173.2 478.4 178.7 474.4 186.5 C 470.5 194.2 471.3 201.8 472.5 212.1 C 473.7 222.4 480.0 235.3 481.6 248.2 C 483.2 261.1 485.2 276.7 482.1 289.3 C 479.0 301.9 471.9 314.5 462.8 323.7 C 453.6 332.9 440.1 339.6 427.1 344.5 C 414.0 349.3 398.7 351.7 384.3 352.8 C 369.9 353.8 354.8 353.3 340.7 350.9 C 326.7 348.5 312.5 344.2 300.0 338.4 C 287.5 332.6 276.0 323.8 266.0 316.1 C 255.9 308.4 248.2 298.7 239.6 292.3 C 231.1 285.9 224.2 280.7 214.4 277.7 C 204.7 274.7 193.5 275.3 181.0 274.3 C 168.6 273.2 152.5 274.4 139.6 271.6 C 126.6 268.7 112.3 264.2 103.2 257.3 C 94.1 250.3 88.5 239.7 84.9 229.9 C 81.3 220.0 83.2 208.3 81.8 198.1 C 80.3 188.0 80.5 178.7 76.4 169.0 C 72.3 159.4 64.3 150.6 57.3 140.0 C 50.2 129.4 38.7 117.5 34.0 105.5 C 29.4 93.4 25.8 79.2 29.3 67.9 C 32.9 56.6 43.3 45.4 55.5 37.9 C 67.8 30.3 87.1 26.0 103.0 22.6 C 119.0 19.3 137.1 19.5 151.2 18.0 C 165.3 16.4 177.1 15.8 187.7 13.2 C 198.2 10.7 205.9 6.8 214.6 2.6 C 223.3 -1.7 230.9 -7.1 239.7 -12.2 C 248.5 -17.3 257.5 -22.6 267.5 -28.1 C 277.6 -33.7 288.1 -39.6 300.0 -45.4 C 311.9 -51.2 325.2 -58.4 339.2 -62.9 C 353.2 -67.5 369.7 -72.4 384.3 -72.7 C 398.9 -72.9 414.9 -70.3 426.9 -64.2 C 438.9 -58.1 448.9 -46.9 456.1 -36.2 C 463.4 -25.5 466.2 -11.1 470.5 0.2 C 474.8 11.5 476.5 22.5 481.8 31.7 C 487.0 40.9 494.4 47.7 501.9 55.6 C 509.4 63.6 520.7 70.7 526.9 79.6 C 533.0 88.5 538.9 98.9 538.6 109.0 C 538.4 119.1 532.3 130.6 525.3 140.0 Z"/></svg>