<svg xmlns="http://www.w3.org/2000/svg" viewBox="-200 -300 2000 1600" fill="none" stroke="#4A4130" stroke-width="1.3" opacity="0.5"><path d="M 1262.6 260.0 C 1263.4 262.7 1264.6 265.7 1264.2 268.3 C 1263.7 271.0 1262.2 273.9 1259.8 275.9 C 1257.4 278.0 1253.2 279.6 1249.7 280.8 C 1246.2 282.0 1241.8 282.2 1238.9 283.1 C 1235.9 284.1 1233.7 284.6 1232.1 286.4 C 1230.6 288.1 1230.5 290.6 1229.6 293.4 C 1228.8 296.3 1228.6 300.4 1227.1 303.6 C 1225.7 306.9 1223.6 310.5 1220.9 312.8 C 1218.3 315.1 1214.6 316.7 1211.1 317.5 C 1207.6 318.2 1203.6 317.8 1200.0 317.3 C 1196.4 316.8 1192.8 315.6 1189.5 314.4 C 1186.2 313.2 1183.0 311.8 1180.1 310.1 C 1177.3 308.5 1174.6 306.6 1172.4 304.5 C 1170.1 302.4 1168.4 299.8 1166.7 297.6 C 1165.1 295.3 1164.0 292.8 1162.5 290.8 C 1161.0 288.7 1159.5 287.0 1157.5 285.3 C 1155.5 283.6 1152.9 282.4 1150.6 280.6 C 1148.3 278.9 1145.4 277.1 1143.8 275.0 C 1142.2 272.8 1141.0 270.2 1140.8 267.7 C 1140.6 265.2 1141.8 262.5 1142.6 260.0 C 1143.4 257.5 1145.1 255.4 1145.6 252.9 C 1146.2 250.5 1146.2 248.3 1145.7 245.5 C 1145.2 242.7 1143.5 239.5 1142.8 236.1 C 1142.1 232.7 1141.0 228.5 1141.8 225.3 C 1142.5 222.1 1144.4 218.7 1147.3 216.8 C 1150.2 214.9 1154.9 214.0 1159.1 213.8 C 1163.3 213.7 1168.5 215.1 1172.6 216.0 C 1176.8 216.9 1180.6 218.5 1183.8 219.2 C 1187.1 220.0 1189.6 220.3 1192.3 220.3 C 1195.0 220.2 1197.3 219.4 1200.0 218.9 C 1202.7 218.4 1205.4 217.6 1208.3 217.2 C 1211.1 216.8 1214.1 216.6 1217.2 216.6 C 1220.3 216.5 1223.5 216.6 1226.8 216.8 C 1230.2 217.0 1233.8 217.2 1237.3 217.9 C 1240.7 218.7 1244.5 219.6 1247.3 221.2 C 1250.2 222.8 1252.9 225.0 1254.6 227.5 C 1256.3 229.9 1257.0 233.1 1257.5 236.0 C 1258.1 238.8 1257.6 241.8 1257.9 244.6 C 1258.2 247.3 1258.6 249.7 1259.3 252.3 C 1260.1 254.9 1261.8 257.3 1262.6 260.0 Z"/><path d="M 1319.8 260.0 C 1321.1 265.0 1322.0 270.8 1320.0 275.6 C 1318.0 280.4 1312.9 285.1 1307.5 288.7 C 1302.2 292.2 1293.7 294.3 1287.7 296.6 C 1281.6 298.9 1275.2 299.8 1271.3 302.5 C 1267.4 305.2 1265.8 308.1 1264.2 312.6 C 1262.6 317.2 1263.2 323.6 1261.7 329.7 C 1260.3 335.8 1258.8 343.5 1255.4 349.1 C 1251.9 354.7 1246.7 360.1 1241.0 363.4 C 1235.3 366.8 1227.9 368.5 1221.1 369.2 C 1214.3 370.0 1206.8 369.2 1200.0 368.1 C 1193.2 367.0 1186.3 365.1 1180.2 362.7 C 1174.0 360.2 1168.0 357.1 1163.0 353.5 C 1157.9 349.8 1153.6 345.0 1149.9 340.6 C 1146.3 336.1 1143.9 330.9 1140.9 326.7 C 1137.9 322.6 1135.7 318.8 1132.0 315.7 C 1128.4 312.7 1123.9 310.8 1118.9 308.3 C 1114.0 305.8 1107.3 303.9 1102.5 300.7 C 1097.6 297.6 1092.4 293.7 1089.8 289.4 C 1087.3 285.0 1086.8 279.6 1087.1 274.7 C 1087.4 269.8 1090.5 264.7 1091.8 260.0 C 1093.1 255.3 1095.0 251.2 1094.8 246.3 C 1094.6 241.5 1092.4 236.6 1090.7 230.9 C 1089.0 225.1 1085.1 218.1 1084.5 211.7 C 1083.9 205.4 1083.8 197.8 1086.9 192.6 C 1090.0 187.4 1096.2 182.8 1103.0 180.4 C 1109.8 178.1 1119.6 178.1 1127.7 178.4 C 1135.9 178.8 1144.7 181.3 1151.8 182.5 C 1159.0 183.7 1164.9 185.3 1170.5 185.6 C 1176.1 186.0 1180.5 185.3 1185.4 184.6 C 1190.3 183.8 1194.9 182.2 1200.0 181.1 C 1205.1 180.1 1210.3 178.9 1215.8 178.0 C 1221.4 177.1 1227.2 176.3 1233.4 175.6 C 1239.7 175.0 1246.5 174.0 1253.4 174.0 C 1260.4 174.0 1268.3 173.9 1274.9 175.5 C 1281.5 177.1 1288.5 179.7 1293.3 183.5 C 1298.0 187.4 1301.3 193.0 1303.4 198.4 C 1305.4 203.8 1305.1 210.3 1305.6 215.9 C 1306.2 221.4 1305.6 226.7 1306.7 231.6 C 1307.8 236.5 1310.1 240.7 1312.3 245.4 C 1314.5 250.2 1318.5 255.0 1319.8 260.0 Z"/><path d="M 1376.5 260.0 C 1377.2 267.3 1375.5 275.6 1370.8 282.2 C 1366.0 288.8 1356.3 294.7 1348.2 299.5 C 1340.1 304.3 1329.1 307.0 1322.2 311.1 C 1315.3 315.1 1309.9 318.0 1306.7 323.5 C 1303.4 329.1 1303.8 336.1 1302.6 344.1 C 1301.3 352.1 1301.8 362.8 1299.0 371.7 C 1296.2 380.7 1291.9 390.7 1285.6 397.8 C 1279.3 404.9 1270.3 410.6 1261.2 414.4 C 1252.1 418.2 1241.2 419.8 1231.0 420.4 C 1220.8 421.1 1210.0 420.3 1200.0 418.4 C 1190.0 416.5 1179.9 413.5 1171.2 409.2 C 1162.5 404.8 1154.3 398.6 1147.6 392.2 C 1140.9 385.8 1136.1 377.4 1131.2 370.7 C 1126.3 364.0 1123.5 357.0 1118.5 352.0 C 1113.5 347.0 1108.5 343.9 1101.4 340.8 C 1094.4 337.8 1084.7 336.8 1076.1 333.8 C 1067.4 330.8 1056.5 327.8 1049.5 322.9 C 1042.6 317.9 1036.8 311.1 1034.3 304.2 C 1031.8 297.3 1033.5 288.8 1034.5 281.5 C 1035.6 274.1 1039.7 267.1 1040.5 260.0 C 1041.2 252.9 1040.9 246.7 1038.9 239.1 C 1036.9 231.5 1031.3 223.2 1028.7 214.3 C 1026.0 205.5 1021.8 194.8 1022.8 186.0 C 1023.8 177.2 1027.8 167.7 1034.8 161.6 C 1041.9 155.5 1053.9 151.4 1065.0 149.3 C 1076.1 147.2 1090.2 148.3 1101.5 148.8 C 1112.9 149.3 1123.8 151.7 1133.1 152.3 C 1142.4 152.9 1149.8 153.0 1157.4 152.4 C 1164.9 151.7 1171.3 149.9 1178.4 148.3 C 1185.5 146.7 1192.4 144.8 1200.0 142.9 C 1207.6 141.0 1215.2 139.2 1223.8 137.0 C 1232.3 134.9 1241.4 132.1 1251.4 130.2 C 1261.4 128.2 1273.0 125.4 1283.7 125.2 C 1294.5 125.0 1306.8 125.6 1316.0 129.1 C 1325.2 132.6 1333.7 138.9 1339.0 146.0 C 1344.3 153.1 1346.3 163.2 1347.9 171.9 C 1349.6 180.5 1347.9 189.9 1348.9 197.8 C 1349.9 205.6 1350.9 212.2 1353.8 219.0 C 1356.7 225.8 1362.6 231.6 1366.4 238.4 C 1370.2 245.2 1375.7 252.7 1376.5 260.0 Z"/><path d="M 1429.6 260.0 C 1428.4 269.4 1421.9 279.7 1414.4 287.8 C 1406.8 296.0 1393.4 302.6 1384.1 309.0 C 1374.8 315.5 1364.6 319.7 1358.8 326.3 C 1353.0 333.0 1351.1 339.8 1349.2 348.9 C 1347.4 358.1 1349.6 369.9 1347.9 381.3 C 1346.3 392.7 1344.8 406.5 1339.5 417.4 C 1334.2 428.4 1325.9 439.1 1316.2 447.0 C 1306.4 454.8 1293.7 460.6 1281.1 464.7 C 1268.5 468.7 1254.3 470.9 1240.8 471.4 C 1227.3 471.8 1213.0 470.8 1200.0 467.4 C 1187.0 464.0 1173.9 458.3 1163.1 451.0 C 1152.3 443.6 1143.0 432.9 1135.2 423.5 C 1127.4 414.2 1122.6 402.7 1116.2 394.9 C 1109.8 387.0 1105.1 380.7 1096.9 376.4 C 1088.6 372.2 1078.3 371.6 1066.6 369.4 C 1054.9 367.2 1039.1 367.0 1026.8 363.2 C 1014.6 359.3 1001.0 353.9 993.1 346.4 C 985.2 339.0 981.2 328.4 979.5 318.7 C 977.9 309.0 981.9 298.0 982.9 288.2 C 983.9 278.4 986.8 269.6 985.6 260.0 C 984.4 250.4 979.8 241.5 975.8 230.9 C 971.9 220.3 963.9 208.2 961.8 196.5 C 959.7 184.9 958.5 171.3 963.2 161.1 C 967.9 150.8 978.2 141.1 990.0 134.9 C 1001.8 128.7 1019.2 125.9 1034.0 123.9 C 1048.7 121.9 1065.1 123.1 1078.5 122.9 C 1092.0 122.7 1103.7 123.3 1114.6 122.6 C 1125.5 121.8 1134.4 120.2 1143.9 118.4 C 1153.4 116.6 1162.0 114.3 1171.4 111.8 C 1180.7 109.2 1189.8 106.8 1200.0 103.4 C 1210.2 100.0 1220.5 95.7 1232.6 91.4 C 1244.6 87.0 1258.2 80.7 1272.4 77.3 C 1286.6 73.8 1303.5 69.7 1317.8 70.5 C 1332.0 71.3 1347.4 75.0 1357.8 81.9 C 1368.3 88.8 1375.9 100.7 1380.6 111.9 C 1385.3 123.2 1384.7 137.6 1386.1 149.2 C 1387.4 160.7 1386.1 171.6 1388.7 181.2 C 1391.3 190.7 1396.4 197.9 1401.8 206.2 C 1407.3 214.6 1416.8 222.3 1421.5 231.2 C 1426.1 240.2 1430.8 250.6 1429.6 260.0 Z"/><path d="M 1476.3 260.0 C 1472.4 271.4 1461.1 282.9 1451.8 292.7 C 1442.6 302.5 1428.7 310.1 1420.6 318.8 C 1412.5 327.5 1406.4 334.7 1403.1 344.9 C 1399.8 355.0 1401.7 366.7 1400.9 379.7 C 1400.0 392.6 1401.6 408.5 1398.2 422.5 C 1394.8 436.6 1389.3 451.7 1380.6 463.8 C 1371.9 475.9 1359.4 486.7 1346.1 495.1 C 1332.8 503.6 1316.8 510.1 1300.9 514.6 C 1284.9 519.0 1267.4 522.1 1250.6 521.7 C 1233.7 521.4 1215.6 518.7 1200.0 512.5 C 1184.4 506.2 1169.0 495.4 1156.7 484.4 C 1144.3 473.4 1135.1 457.8 1126.1 446.4 C 1117.2 435.0 1112.0 423.1 1103.0 416.1 C 1093.9 409.2 1085.0 406.6 1072.0 404.5 C 1058.9 402.5 1041.2 405.3 1024.5 403.9 C 1007.8 402.5 986.6 401.5 971.8 395.9 C 957.1 390.3 943.6 380.8 936.1 370.2 C 928.6 359.7 927.9 345.3 926.8 332.8 C 925.8 320.3 930.3 307.2 929.9 295.1 C 929.5 282.9 928.2 272.2 924.3 260.0 C 920.4 247.8 911.4 235.4 906.6 221.9 C 901.9 208.4 894.9 192.7 895.6 178.9 C 896.4 165.2 901.5 150.3 911.3 139.4 C 921.1 128.5 938.2 119.8 954.3 113.6 C 970.4 107.5 990.9 105.1 1007.9 102.5 C 1024.9 99.8 1041.5 99.4 1056.1 97.6 C 1070.7 95.9 1083.1 94.1 1095.5 91.8 C 1107.9 89.6 1118.8 86.9 1130.3 84.1 C 1141.7 81.2 1152.6 78.7 1164.2 74.7 C 1175.8 70.6 1186.9 66.0 1200.0 59.8 C 1213.1 53.6 1226.9 44.6 1243.0 37.3 C 1259.1 30.0 1278.3 20.0 1296.7 15.9 C 1315.2 11.8 1337.0 9.1 1353.6 12.8 C 1370.2 16.6 1386.2 26.5 1396.4 38.3 C 1406.6 50.2 1411.2 68.6 1414.8 83.8 C 1418.5 99.1 1416.2 116.4 1418.4 129.9 C 1420.6 143.4 1422.4 154.2 1428.0 164.8 C 1433.5 175.3 1443.9 183.0 1451.8 192.9 C 1459.7 202.8 1471.0 213.1 1475.1 224.3 C 1479.2 235.5 1480.2 248.6 1476.3 260.0 Z"/><path d="M 1516.1 260.0 C 1510.1 273.2 1496.7 285.7 1488.1 297.4 C 1479.5 309.2 1469.5 318.7 1464.6 330.5 C 1459.6 342.3 1459.3 354.0 1458.5 368.0 C 1457.7 382.0 1461.2 398.6 1459.7 414.7 C 1458.3 430.9 1456.4 449.2 1449.8 464.8 C 1443.3 480.5 1432.8 495.9 1420.4 508.8 C 1408.0 521.7 1392.1 533.1 1375.5 542.4 C 1358.8 551.7 1339.9 560.0 1320.7 564.5 C 1301.4 569.0 1279.9 572.0 1259.8 569.5 C 1239.7 566.9 1217.9 559.7 1200.0 549.3 C 1182.1 538.9 1165.7 521.5 1152.3 507.1 C 1138.8 492.8 1130.2 474.4 1119.5 463.2 C 1108.8 452.0 1101.4 443.8 1088.2 440.0 C 1074.9 436.2 1059.0 439.7 1040.1 440.5 C 1021.1 441.3 995.6 446.5 974.6 444.8 C 953.6 443.1 929.6 439.0 914.0 430.4 C 898.5 421.8 887.8 407.1 881.2 393.2 C 874.7 379.2 876.4 361.7 874.9 346.6 C 873.4 331.5 875.3 317.0 872.1 302.6 C 869.0 288.1 862.1 275.0 856.1 260.0 C 850.1 245.0 839.4 228.9 836.2 212.8 C 833.0 196.6 831.2 178.3 836.9 163.3 C 842.6 148.2 855.6 133.4 870.4 122.3 C 885.2 111.2 907.0 103.3 925.8 96.6 C 944.6 89.9 965.3 86.4 983.1 82.2 C 1000.9 77.9 1017.0 74.6 1032.5 71.0 C 1047.9 67.3 1061.8 63.7 1075.8 60.2 C 1089.9 56.6 1103.3 54.0 1116.7 49.8 C 1130.2 45.6 1142.6 41.9 1156.5 34.9 C 1170.4 28.0 1183.5 18.5 1200.0 8.1 C 1216.5 -2.3 1234.9 -17.5 1255.5 -27.4 C 1276.1 -37.3 1301.4 -49.0 1323.4 -51.5 C 1345.5 -54.0 1370.4 -51.2 1387.8 -42.2 C 1405.2 -33.2 1419.1 -14.7 1428.0 2.7 C 1436.9 20.1 1438.0 43.9 1441.3 62.1 C 1444.6 80.4 1443.3 98.0 1448.0 112.3 C 1452.6 126.5 1460.2 136.3 1469.3 147.5 C 1478.4 158.7 1493.5 167.6 1502.6 179.4 C 1511.7 191.1 1521.8 204.5 1524.0 217.9 C 1526.2 231.4 1522.1 246.8 1516.1 260.0 Z"/><path d="M 1552.7 260.0 C 1546.7 275.1 1535.7 288.7 1530.4 302.9 C 1525.2 317.2 1522.1 330.1 1521.0 345.5 C 1520.0 360.9 1523.9 377.7 1524.0 395.4 C 1524.1 413.0 1525.5 433.1 1521.4 451.5 C 1517.3 469.8 1509.9 488.8 1499.5 505.6 C 1489.0 522.3 1474.4 537.9 1458.7 551.9 C 1442.9 566.0 1424.6 579.4 1404.8 589.7 C 1385.1 599.9 1362.9 609.9 1340.0 613.4 C 1317.2 616.8 1291.0 616.9 1267.7 610.4 C 1244.3 603.8 1219.7 589.1 1200.0 574.1 C 1180.3 559.1 1164.3 535.9 1149.7 520.2 C 1135.2 504.5 1126.5 487.8 1112.9 479.9 C 1099.2 471.9 1086.8 471.5 1067.9 472.5 C 1049.0 473.6 1024.2 483.4 999.5 486.3 C 974.7 489.3 943.0 493.9 919.2 490.2 C 895.5 486.6 872.1 476.9 857.0 464.3 C 841.9 451.8 834.9 432.3 828.9 415.1 C 822.8 397.8 824.3 378.4 820.8 361.0 C 817.3 343.7 813.8 327.8 807.8 310.9 C 801.8 294.1 790.7 277.8 784.7 260.0 C 778.7 242.2 770.9 222.6 771.9 204.4 C 772.9 186.2 779.3 166.8 790.6 150.9 C 801.9 135.1 821.5 121.1 839.7 109.5 C 858.0 97.9 880.6 89.5 900.1 81.3 C 919.5 73.1 938.5 66.7 956.4 60.3 C 974.3 53.8 990.6 47.7 1007.3 42.5 C 1023.9 37.2 1040.3 33.2 1056.2 28.5 C 1072.1 23.9 1087.5 21.1 1102.7 14.5 C 1117.9 7.8 1131.3 0.0 1147.5 -11.6 C 1163.7 -23.3 1179.6 -40.6 1200.0 -55.6 C 1220.4 -70.7 1244.8 -91.2 1269.9 -101.8 C 1294.9 -112.4 1325.7 -121.3 1350.2 -119.1 C 1374.7 -116.9 1399.8 -104.6 1416.6 -88.6 C 1433.4 -72.6 1443.3 -45.4 1450.9 -23.1 C 1458.5 -0.9 1457.7 25.4 1462.3 44.9 C 1466.8 64.5 1469.8 80.1 1478.3 94.2 C 1486.8 108.2 1501.0 117.1 1513.2 129.2 C 1525.3 141.2 1542.4 152.5 1551.2 166.4 C 1560.1 180.3 1566.1 196.8 1566.3 212.4 C 1566.6 228.0 1558.7 244.9 1552.7 260.0 Z"/><path d="M 1593.2 260.0 C 1590.2 277.1 1586.2 292.8 1585.8 310.1 C 1585.4 327.5 1589.3 345.0 1590.8 364.1 C 1592.3 383.3 1596.5 404.5 1594.9 425.0 C 1593.2 445.5 1589.1 467.2 1580.9 486.9 C 1572.7 506.7 1559.9 525.6 1545.8 543.6 C 1531.7 561.5 1514.9 578.8 1496.3 594.4 C 1477.7 610.0 1457.5 626.6 1434.3 637.1 C 1411.2 647.7 1384.5 657.4 1357.6 657.8 C 1330.8 658.2 1299.6 651.6 1273.3 639.6 C 1247.1 627.7 1220.9 604.5 1200.0 586.1 C 1179.1 567.6 1164.2 542.6 1148.1 529.0 C 1131.9 515.3 1121.3 506.0 1103.2 504.2 C 1085.2 502.3 1065.0 511.9 1039.7 518.0 C 1014.3 524.1 980.7 537.7 951.1 540.9 C 921.6 544.0 886.9 544.4 862.2 537.0 C 837.5 529.6 817.2 513.2 803.0 496.5 C 788.8 479.8 784.0 456.6 777.1 436.7 C 770.2 416.7 768.1 396.2 761.7 376.8 C 755.4 357.3 746.2 339.4 738.8 319.9 C 731.4 300.4 720.3 280.4 717.2 260.0 C 714.2 239.6 713.8 217.4 720.6 197.7 C 727.3 178.1 742.0 158.6 757.7 142.2 C 773.3 125.7 795.3 111.8 814.4 98.9 C 833.5 86.0 853.5 75.2 872.2 64.7 C 890.9 54.2 908.2 44.2 926.4 35.6 C 944.6 27.1 963.0 19.7 981.4 13.3 C 999.8 6.9 1019.1 3.5 1036.6 -2.9 C 1054.2 -9.3 1070.3 -14.2 1086.9 -25.4 C 1103.5 -36.5 1117.4 -52.1 1136.3 -69.9 C 1155.1 -87.7 1175.2 -113.8 1200.0 -132.2 C 1224.8 -150.7 1256.1 -172.7 1285.1 -180.5 C 1314.1 -188.3 1348.6 -188.7 1373.9 -179.0 C 1399.3 -169.2 1422.0 -145.1 1437.4 -122.0 C 1452.7 -98.9 1458.7 -65.4 1466.0 -40.3 C 1473.4 -15.1 1474.0 10.0 1481.6 29.1 C 1489.2 48.1 1499.0 60.7 1511.7 74.3 C 1524.4 87.9 1543.8 97.2 1557.6 110.6 C 1571.5 124.0 1587.1 138.6 1594.9 154.8 C 1602.6 171.0 1604.3 190.0 1604.0 207.5 C 1603.7 225.1 1596.3 242.9 1593.2 260.0 Z"/><path d="M 295.4 800.0 C 295.7 802.3 295.3 804.8 294.7 807.1 C 294.1 809.4 292.7 811.6 291.7 813.8 C 290.7 816.0 289.5 818.0 288.5 820.3 C 287.6 822.5 287.0 825.0 285.9 827.3 C 284.7 829.6 283.7 832.3 281.6 834.1 C 279.6 835.9 276.8 837.6 273.8 838.1 C 270.7 838.7 266.6 838.1 263.2 837.3 C 259.8 836.6 256.1 834.5 253.2 833.4 C 250.4 832.4 248.2 831.0 246.0 831.0 C 243.8 830.9 242.2 831.9 240.0 833.2 C 237.8 834.5 235.4 837.1 232.5 838.9 C 229.6 840.6 226.0 842.7 222.8 843.5 C 219.5 844.3 215.8 844.3 212.9 843.7 C 209.9 843.0 207.3 841.2 205.0 839.4 C 202.8 837.7 201.1 835.4 199.4 833.3 C 197.7 831.2 196.1 829.1 194.8 826.9 C 193.4 824.8 192.0 822.7 191.1 820.4 C 190.2 818.2 189.7 815.8 189.5 813.5 C 189.3 811.1 189.7 808.7 190.1 806.5 C 190.4 804.2 191.0 802.1 191.4 800.0 C 191.7 797.9 191.8 795.9 192.0 793.8 C 192.2 791.7 192.1 789.5 192.8 787.4 C 193.4 785.4 194.4 783.3 195.9 781.6 C 197.4 779.9 199.7 778.5 201.7 777.2 C 203.8 775.9 206.3 775.2 208.1 773.8 C 209.9 772.5 211.3 771.2 212.6 769.1 C 214.0 767.0 214.6 764.2 216.0 761.4 C 217.4 758.6 218.8 754.8 221.1 752.3 C 223.4 749.9 226.6 747.5 229.7 746.7 C 232.9 746.0 236.8 746.6 240.0 747.9 C 243.2 749.2 246.3 752.2 248.8 754.6 C 251.2 757.1 253.0 760.2 254.9 762.4 C 256.8 764.6 258.2 766.3 260.1 767.7 C 262.0 769.0 264.0 769.6 266.2 770.5 C 268.3 771.3 270.8 771.9 272.9 773.0 C 275.0 774.1 277.1 775.4 278.9 776.8 C 280.7 778.3 282.2 780.0 283.8 781.7 C 285.4 783.4 286.9 785.2 288.4 787.1 C 289.9 789.0 291.6 791.0 292.8 793.1 C 293.9 795.3 295.0 797.7 295.4 800.0 Z"/><path d="M 351.3 800.0 C 350.9 804.7 348.5 809.4 346.6 813.8 C 344.7 818.3 341.8 822.3 339.9 826.6 C 338.0 830.9 336.8 835.2 335.3 839.8 C 333.8 844.4 333.3 849.8 331.0 854.2 C 328.6 858.6 325.6 863.6 320.9 866.4 C 316.2 869.2 309.4 870.9 302.9 871.0 C 296.3 871.1 288.1 868.7 281.6 867.0 C 275.2 865.4 269.1 861.9 264.1 860.9 C 259.2 860.0 255.9 859.7 251.8 861.3 C 247.8 863.0 244.6 867.1 240.0 870.7 C 235.4 874.3 229.9 879.7 224.0 882.8 C 218.1 885.9 210.9 888.7 204.6 889.3 C 198.3 889.9 191.8 888.5 186.2 886.5 C 180.7 884.5 175.9 880.8 171.5 877.3 C 167.1 873.8 163.4 869.7 160.0 865.6 C 156.6 861.6 153.3 857.4 151.0 853.0 C 148.7 848.6 146.9 843.9 146.0 839.3 C 145.1 834.6 145.5 829.7 145.7 825.1 C 146.0 820.6 147.2 816.2 147.5 812.0 C 147.7 807.8 147.7 804.1 147.3 800.0 C 146.9 795.9 145.3 791.9 145.1 787.7 C 144.9 783.5 144.5 778.9 145.9 774.9 C 147.3 770.9 150.2 767.0 153.5 763.9 C 156.9 760.7 162.1 758.5 165.9 755.9 C 169.8 753.2 173.8 751.4 176.7 748.1 C 179.5 744.7 180.9 740.7 183.0 735.6 C 185.0 730.6 186.0 723.6 189.0 718.0 C 192.1 712.3 196.0 705.5 201.1 701.8 C 206.3 698.2 213.5 695.9 219.9 696.1 C 226.4 696.4 234.0 699.8 240.0 703.4 C 246.0 707.0 251.3 713.2 255.9 717.6 C 260.5 722.1 263.8 726.9 267.7 730.2 C 271.5 733.5 274.9 735.5 278.9 737.5 C 282.8 739.4 287.2 740.3 291.4 742.0 C 295.7 743.6 300.1 745.2 304.2 747.3 C 308.3 749.5 312.1 752.0 316.1 754.7 C 320.0 757.4 323.8 760.2 327.8 763.3 C 331.7 766.4 336.2 769.7 339.7 773.4 C 343.3 777.2 347.0 781.4 348.9 785.9 C 350.9 790.3 351.7 795.3 351.3 800.0 Z"/><path d="M 405.8 800.0 C 403.6 807.0 398.5 813.7 395.4 820.2 C 392.3 826.7 389.0 832.6 387.0 839.2 C 384.9 845.8 385.0 852.8 383.2 859.8 C 381.4 866.8 380.5 875.1 376.1 881.1 C 371.8 887.1 365.2 893.1 357.0 895.9 C 348.8 898.8 337.0 899.0 327.0 898.2 C 317.0 897.5 305.6 893.3 296.9 891.6 C 288.2 889.9 281.3 887.2 274.9 888.1 C 268.5 889.0 264.5 892.4 258.7 896.9 C 252.9 901.5 247.4 909.6 240.0 915.4 C 232.6 921.2 223.6 928.2 214.6 931.7 C 205.5 935.3 195.1 937.0 185.9 936.6 C 176.7 936.2 167.6 933.0 159.5 929.5 C 151.5 926.0 144.2 920.7 137.7 915.5 C 131.2 910.2 125.1 904.4 120.4 898.1 C 115.7 891.8 111.7 884.9 109.3 877.8 C 107.0 870.8 106.5 863.0 106.3 855.9 C 106.1 848.7 108.0 841.5 108.3 835.1 C 108.6 828.6 109.1 823.0 108.0 817.1 C 106.9 811.3 103.9 806.0 101.8 800.0 C 99.6 794.0 95.8 787.5 95.1 781.2 C 94.5 774.9 95.0 767.9 97.9 762.1 C 100.7 756.4 106.9 751.2 112.3 746.6 C 117.7 742.1 125.2 739.1 130.2 734.6 C 135.1 730.1 139.0 726.0 142.0 719.7 C 145.1 713.3 145.5 704.9 148.4 696.6 C 151.2 688.2 153.5 677.1 158.9 669.5 C 164.3 661.9 172.2 654.1 181.0 651.0 C 189.7 647.9 201.3 648.2 211.2 650.7 C 221.0 653.2 231.5 660.3 240.0 666.1 C 248.5 671.9 255.5 680.0 262.1 685.5 C 268.7 691.1 273.9 695.9 279.8 699.5 C 285.7 703.1 291.5 705.0 297.6 707.4 C 303.6 709.8 310.1 711.4 316.4 713.8 C 322.7 716.2 328.9 718.9 335.3 721.8 C 341.8 724.7 348.3 727.8 355.3 731.3 C 362.2 734.8 370.1 738.2 377.2 742.7 C 384.2 747.1 392.2 752.1 397.4 758.1 C 402.6 764.0 406.9 771.2 408.3 778.1 C 409.7 785.1 407.9 793.0 405.8 800.0 Z"/><path d="M 455.4 800.0 C 451.2 809.3 444.5 817.5 441.1 826.1 C 437.6 834.8 436.2 842.8 434.7 851.9 C 433.2 860.9 434.8 871.2 432.2 880.3 C 429.5 889.4 426.4 899.8 418.9 906.6 C 411.4 913.3 399.5 918.6 387.4 920.8 C 375.3 923.1 359.0 921.1 346.4 920.0 C 333.7 919.0 321.0 914.6 311.2 914.6 C 301.4 914.5 294.8 915.5 287.4 919.7 C 280.1 924.0 275.0 932.6 267.1 940.3 C 259.2 948.1 250.4 959.1 240.0 966.2 C 229.6 973.3 216.8 979.9 204.7 982.9 C 192.5 985.9 179.1 985.7 167.1 984.1 C 155.1 982.4 143.2 977.8 132.6 972.8 C 122.0 967.8 111.9 961.3 103.5 954.1 C 95.1 946.8 87.5 938.3 82.5 929.2 C 77.4 920.1 74.6 909.4 73.2 899.4 C 71.8 889.4 73.7 878.6 74.1 869.3 C 74.5 860.1 76.6 851.7 75.5 843.8 C 74.3 836.0 71.2 829.7 67.2 822.4 C 63.2 815.1 55.6 808.0 51.4 800.0 C 47.2 792.0 42.2 782.7 42.1 774.3 C 41.9 765.9 45.4 756.9 50.5 749.5 C 55.5 742.1 65.3 736.2 72.2 729.9 C 79.1 723.6 87.1 719.1 92.1 711.9 C 97.0 704.6 98.9 696.6 101.7 686.6 C 104.5 676.6 104.5 663.2 108.9 652.0 C 113.2 640.8 118.8 627.3 127.8 619.4 C 136.7 611.5 149.9 605.7 162.6 604.7 C 175.3 603.6 191.0 608.1 203.9 613.1 C 216.8 618.2 229.3 627.8 240.0 634.9 C 250.7 642.0 259.2 650.0 267.9 655.7 C 276.5 661.4 283.9 665.3 291.9 669.0 C 299.9 672.7 307.8 674.8 316.0 677.7 C 324.2 680.5 332.3 683.2 341.0 686.1 C 349.6 688.9 358.3 691.8 368.1 694.9 C 378.0 698.0 389.0 700.7 400.0 704.7 C 411.0 708.7 424.1 712.8 434.1 718.9 C 444.0 725.0 454.3 732.9 459.7 741.5 C 465.1 750.1 467.0 760.9 466.3 770.6 C 465.5 780.4 459.6 790.7 455.4 800.0 Z"/><path d="M 499.2 800.0 C 493.8 811.3 488.2 821.1 485.7 831.9 C 483.2 842.8 485.1 853.6 484.2 865.1 C 483.3 876.5 485.0 889.8 480.3 900.4 C 475.6 911.0 467.6 922.1 456.1 928.8 C 444.6 935.4 426.8 938.7 411.3 940.4 C 395.8 942.2 377.1 939.0 363.2 939.0 C 349.2 939.1 337.6 937.5 327.6 940.9 C 317.6 944.3 311.6 951.1 303.2 959.4 C 294.7 967.8 287.4 981.0 276.9 991.1 C 266.4 1001.3 253.7 1013.1 240.0 1020.3 C 226.3 1027.5 210.0 1032.4 194.7 1034.3 C 179.4 1036.3 163.1 1034.7 148.2 1031.8 C 133.2 1028.9 118.2 1023.6 105.2 1016.9 C 92.2 1010.3 79.5 1001.7 70.2 991.6 C 60.9 981.5 53.6 968.8 49.5 956.2 C 45.3 943.6 45.5 928.7 45.3 916.0 C 45.2 903.3 49.0 890.6 48.5 880.0 C 48.0 869.5 47.1 861.2 42.4 852.6 C 37.7 844.1 28.2 837.3 20.3 828.5 C 12.5 819.8 0.6 810.2 -4.8 800.0 C -10.2 789.8 -13.7 777.7 -12.1 767.3 C -10.5 756.8 -2.4 746.4 4.9 737.4 C 12.1 728.3 24.0 721.4 31.2 712.8 C 38.5 704.2 44.4 696.6 48.4 685.8 C 52.3 675.1 51.8 661.7 54.9 648.2 C 58.0 634.7 59.6 617.3 66.9 604.7 C 74.3 592.1 85.4 579.1 98.8 572.7 C 112.2 566.3 130.9 564.7 147.4 566.4 C 164.0 568.1 182.6 576.2 198.1 582.9 C 213.5 589.7 227.4 599.9 240.0 607.1 C 252.6 614.3 262.9 620.9 273.6 626.2 C 284.2 631.4 293.8 635.0 303.9 638.7 C 314.0 642.5 323.6 645.6 334.0 648.7 C 344.4 651.8 354.5 654.7 366.5 657.3 C 378.4 659.8 391.4 661.4 405.8 664.0 C 420.3 666.6 437.8 668.3 453.1 673.1 C 468.3 677.8 486.1 683.8 497.5 692.4 C 509.0 701.0 518.3 713.0 521.7 724.9 C 525.2 736.8 521.9 751.4 518.1 763.9 C 514.4 776.4 504.6 788.7 499.2 800.0 Z"/><path d="M 539.0 800.0 C 534.1 813.3 532.5 824.8 531.7 837.9 C 531.0 851.0 535.9 865.0 534.7 878.5 C 533.4 892.0 532.3 907.4 524.1 918.7 C 516.0 930.0 501.4 940.2 485.8 946.4 C 470.2 952.7 448.0 954.1 430.7 956.3 C 413.3 958.6 395.2 956.7 381.6 959.8 C 367.9 962.9 358.6 967.0 348.7 975.0 C 338.8 983.0 332.5 995.9 322.3 1007.8 C 312.2 1019.7 301.4 1035.4 287.6 1046.6 C 273.9 1057.8 257.1 1068.4 240.0 1074.9 C 222.9 1081.4 203.4 1084.6 184.8 1085.5 C 166.3 1086.5 146.7 1084.5 128.9 1080.4 C 111.1 1076.3 92.7 1070.0 77.9 1060.8 C 63.2 1051.6 49.4 1039.1 40.6 1025.1 C 31.7 1011.0 27.1 992.8 24.7 976.6 C 22.2 960.3 25.9 942.0 26.0 927.5 C 26.0 913.1 28.7 900.6 24.9 889.9 C 21.1 879.1 13.2 872.1 3.2 863.1 C -6.8 854.1 -23.9 846.3 -35.2 835.7 C -46.6 825.2 -60.1 812.6 -65.0 800.0 C -69.9 787.4 -69.0 772.8 -64.8 760.4 C -60.6 748.0 -48.2 736.6 -39.8 725.5 C -31.3 714.4 -20.2 705.5 -14.0 693.9 C -7.9 682.2 -5.8 669.9 -2.9 655.3 C 0.1 640.7 -1.3 622.2 3.6 606.1 C 8.5 590.1 14.7 571.2 26.6 559.1 C 38.4 547.0 56.3 537.4 74.5 533.7 C 92.7 529.9 115.9 532.8 135.7 536.8 C 155.5 540.7 175.8 550.3 193.1 557.4 C 210.5 564.6 225.6 573.1 240.0 579.6 C 254.4 586.1 266.7 591.4 279.3 596.4 C 291.9 601.3 303.4 605.5 315.5 609.4 C 327.7 613.2 338.8 617.0 352.1 619.5 C 365.5 622.0 379.0 623.3 395.6 624.4 C 412.2 625.5 431.9 624.3 451.8 626.3 C 471.6 628.3 496.1 629.9 514.6 636.4 C 533.2 642.8 552.6 652.7 563.1 665.0 C 573.6 677.3 577.9 694.5 577.6 710.0 C 577.3 725.6 567.8 743.3 561.3 758.3 C 554.9 773.3 543.9 786.7 539.0 800.0 Z"/></svg>