<svg xmlns="http://www.w3.org/2000/svg" viewBox="-200 -300 2000 1600" fill="none" stroke="#D8D1BD" stroke-width="1.3" opacity="0.75"><path d="M 1165.5 300.0 C 1165.6 303.5 1163.4 307.4 1160.8 310.5 C 1158.2 313.6 1153.4 316.2 1150.0 318.7 C 1146.6 321.1 1142.9 322.9 1140.4 325.2 C 1137.8 327.5 1136.4 329.9 1134.7 332.6 C 1133.0 335.2 1132.1 338.5 1130.1 341.1 C 1128.0 343.6 1125.6 346.3 1122.5 347.9 C 1119.3 349.5 1115.2 350.2 1111.4 350.5 C 1107.6 350.8 1103.3 349.9 1099.6 349.6 C 1096.0 349.2 1092.6 348.5 1089.4 348.5 C 1086.1 348.5 1083.2 349.1 1080.0 349.7 C 1076.8 350.3 1073.5 351.5 1069.9 352.1 C 1066.4 352.8 1062.6 353.5 1058.7 353.7 C 1054.9 353.9 1050.9 353.8 1046.8 353.5 C 1042.7 353.2 1038.4 352.7 1034.2 351.7 C 1029.9 350.8 1025.2 349.8 1021.5 348.0 C 1017.7 346.2 1013.7 343.8 1011.5 340.8 C 1009.3 337.8 1008.1 333.7 1008.4 329.9 C 1008.8 326.1 1011.2 321.5 1013.3 317.8 C 1015.5 314.0 1019.4 310.6 1021.4 307.6 C 1023.5 304.6 1025.3 302.5 1025.5 300.0 C 1025.6 297.5 1023.9 295.3 1022.5 292.5 C 1021.1 289.7 1018.0 286.4 1016.9 283.2 C 1015.7 279.9 1014.9 276.1 1015.6 273.1 C 1016.4 270.1 1018.8 267.3 1021.4 265.1 C 1024.0 262.9 1028.0 261.6 1031.1 259.9 C 1034.2 258.2 1037.4 257.0 1040.2 255.0 C 1043.0 253.1 1045.1 250.6 1047.8 248.2 C 1050.5 245.8 1053.1 242.5 1056.4 240.4 C 1059.6 238.2 1063.5 236.1 1067.5 235.1 C 1071.4 234.2 1075.9 234.3 1080.0 234.9 C 1084.1 235.5 1088.2 237.1 1091.8 238.8 C 1095.5 240.4 1098.9 242.5 1102.0 244.5 C 1105.1 246.6 1107.9 248.8 1110.3 251.2 C 1112.7 253.6 1114.8 256.3 1116.4 258.9 C 1118.1 261.5 1119.1 264.4 1120.5 266.8 C 1121.8 269.2 1122.6 271.5 1124.8 273.3 C 1126.9 275.2 1129.6 276.3 1133.2 277.8 C 1136.8 279.3 1142.1 280.3 1146.5 282.3 C 1150.9 284.3 1156.6 286.7 1159.7 289.6 C 1162.9 292.6 1165.3 296.5 1165.5 300.0 Z"/><path d="M 1229.4 300.0 C 1227.5 306.1 1220.9 312.4 1215.5 317.6 C 1210.1 322.8 1202.1 326.8 1196.8 331.1 C 1191.4 335.4 1187.0 338.9 1183.5 343.3 C 1180.0 347.6 1178.6 352.5 1175.8 357.1 C 1173.0 361.7 1170.6 367.1 1166.5 371.0 C 1162.4 374.8 1156.9 378.2 1151.1 380.3 C 1145.3 382.4 1138.1 382.8 1131.8 383.4 C 1125.5 384.1 1119.1 383.5 1113.3 384.0 C 1107.4 384.5 1102.3 385.3 1096.7 386.5 C 1091.2 387.7 1085.8 389.8 1080.0 391.2 C 1074.2 392.7 1068.0 394.3 1061.6 395.1 C 1055.3 396.0 1048.7 396.2 1041.8 396.3 C 1035.0 396.4 1028.0 396.1 1020.6 395.5 C 1013.3 395.0 1005.1 394.6 997.6 393.0 C 990.1 391.4 981.5 389.4 975.5 385.7 C 969.5 381.9 963.9 376.6 961.7 370.5 C 959.5 364.4 960.2 356.2 962.4 349.1 C 964.5 342.1 970.6 334.3 974.5 328.1 C 978.4 322.0 983.9 316.9 985.8 312.2 C 987.6 307.6 987.3 304.3 985.4 300.0 C 983.5 295.7 978.0 291.4 974.5 286.3 C 971.1 281.2 966.1 274.9 964.7 269.3 C 963.3 263.6 963.8 257.4 966.1 252.4 C 968.4 247.4 973.7 243.3 978.4 239.5 C 983.0 235.6 989.1 233.0 994.0 229.5 C 998.9 226.0 1003.2 222.5 1007.7 218.4 C 1012.2 214.4 1016.0 209.3 1021.1 205.2 C 1026.1 201.0 1031.6 196.4 1037.9 193.7 C 1044.1 191.0 1051.5 189.3 1058.5 188.9 C 1065.6 188.5 1073.1 189.7 1080.0 191.2 C 1086.9 192.6 1093.6 195.0 1099.8 197.5 C 1106.0 200.0 1112.0 202.7 1117.2 206.0 C 1122.5 209.3 1127.4 213.1 1131.4 217.3 C 1135.4 221.5 1138.3 226.6 1141.0 231.1 C 1143.8 235.6 1145.0 240.6 1148.0 244.2 C 1151.0 247.8 1153.8 250.5 1159.1 252.9 C 1164.4 255.2 1171.9 256.1 1179.8 258.3 C 1187.7 260.5 1198.7 262.5 1206.5 266.3 C 1214.4 270.1 1222.9 275.3 1226.8 280.9 C 1230.6 286.6 1231.3 293.9 1229.4 300.0 Z"/><path d="M 1288.1 300.0 C 1282.9 308.6 1271.9 316.8 1264.0 323.9 C 1256.1 331.0 1246.9 336.6 1240.7 342.8 C 1234.4 349.0 1230.7 354.9 1226.6 361.2 C 1222.5 367.6 1220.6 374.9 1216.2 381.1 C 1211.7 387.3 1206.7 393.8 1200.1 398.5 C 1193.5 403.2 1184.9 406.4 1176.7 409.2 C 1168.6 411.9 1159.5 412.9 1151.4 414.9 C 1143.2 416.8 1135.6 418.4 1127.9 420.8 C 1120.1 423.2 1112.9 426.5 1104.9 429.2 C 1097.0 431.8 1088.7 434.8 1080.0 436.6 C 1071.3 438.4 1062.2 439.3 1053.0 439.9 C 1043.7 440.5 1034.4 440.3 1024.4 440.3 C 1014.4 440.4 1003.8 440.8 992.9 440.2 C 981.9 439.7 969.3 439.7 958.7 436.9 C 948.2 434.1 936.5 430.0 929.6 423.3 C 922.7 416.6 918.0 406.7 917.5 396.8 C 916.9 387.0 921.8 374.4 926.2 364.3 C 930.6 354.2 939.7 344.2 943.9 336.3 C 948.1 328.3 952.0 322.8 951.4 316.7 C 950.7 310.7 945.3 306.2 940.1 300.0 C 934.9 293.8 925.4 286.8 920.3 279.3 C 915.2 271.7 910.3 262.6 909.7 254.6 C 909.1 246.7 912.4 238.6 916.5 231.7 C 920.7 224.8 928.4 219.2 934.6 213.4 C 940.9 207.5 947.8 202.5 954.0 196.7 C 960.3 190.8 965.6 184.3 972.2 178.3 C 978.7 172.3 985.4 165.4 993.4 160.6 C 1001.4 155.8 1010.8 151.7 1020.3 149.4 C 1029.9 147.2 1040.6 147.0 1050.5 147.3 C 1060.5 147.6 1070.5 149.4 1080.0 151.2 C 1089.5 153.0 1098.8 155.1 1107.4 158.1 C 1116.1 161.0 1124.7 164.3 1131.9 169.0 C 1139.2 173.6 1145.6 179.8 1150.8 186.0 C 1156.1 192.2 1159.1 200.1 1163.3 206.0 C 1167.4 211.9 1169.7 217.7 1175.7 221.5 C 1181.6 225.4 1188.9 226.9 1199.0 229.1 C 1209.1 231.3 1223.6 231.6 1236.3 234.7 C 1248.9 237.9 1265.0 241.9 1274.8 248.1 C 1284.7 254.3 1292.9 263.4 1295.1 272.1 C 1297.3 280.7 1293.3 291.4 1288.1 300.0 Z"/><path d="M 1339.0 300.0 C 1330.4 311.0 1316.7 320.5 1307.5 329.5 C 1298.3 338.6 1290.0 346.0 1283.5 354.2 C 1277.1 362.5 1274.0 370.8 1269.0 379.0 C 1264.0 387.2 1260.0 396.1 1253.5 403.4 C 1247.0 410.7 1238.6 417.3 1229.8 422.8 C 1221.0 428.3 1210.4 432.1 1200.9 436.4 C 1191.3 440.7 1181.8 444.2 1172.4 448.7 C 1163.0 453.1 1154.3 458.4 1144.6 463.0 C 1134.9 467.7 1124.8 473.0 1114.1 476.4 C 1103.3 479.8 1091.6 482.2 1080.0 483.6 C 1068.4 485.1 1056.6 484.7 1044.2 485.2 C 1031.9 485.6 1019.7 486.0 1006.1 486.5 C 992.6 487.0 977.5 489.1 963.0 488.3 C 948.4 487.6 931.3 487.1 918.8 482.0 C 906.2 476.9 893.6 468.5 887.6 457.7 C 881.7 447.0 880.8 431.2 882.8 417.5 C 884.9 403.7 894.4 387.5 900.0 375.2 C 905.7 362.9 914.8 352.4 916.8 343.5 C 918.9 334.6 917.3 329.0 912.3 321.8 C 907.3 314.5 895.5 308.4 887.0 300.0 C 878.4 291.6 866.6 281.6 861.1 271.6 C 855.5 261.5 852.8 249.8 853.7 239.7 C 854.5 229.6 860.6 219.7 866.3 210.7 C 872.0 201.7 880.5 193.8 887.8 185.5 C 895.1 177.2 902.3 168.9 910.2 160.8 C 918.1 152.6 925.7 143.6 935.2 136.6 C 944.7 129.5 955.6 122.8 967.2 118.4 C 978.8 114.1 992.2 111.9 1004.9 110.5 C 1017.6 109.2 1030.9 109.9 1043.4 110.3 C 1055.9 110.7 1068.1 111.5 1080.0 113.0 C 1091.9 114.4 1104.0 115.6 1114.9 119.1 C 1125.9 122.6 1136.9 127.5 1145.8 134.0 C 1154.7 140.5 1161.7 150.1 1168.2 158.1 C 1174.6 166.1 1177.9 175.9 1184.4 182.1 C 1190.9 188.4 1196.6 192.7 1207.3 195.6 C 1217.9 198.6 1232.6 197.7 1248.5 199.6 C 1264.4 201.5 1286.4 202.0 1302.8 206.9 C 1319.1 211.8 1337.4 219.5 1346.7 228.9 C 1356.1 238.4 1360.0 252.0 1358.7 263.8 C 1357.4 275.6 1347.5 289.0 1339.0 300.0 Z"/><path d="M 1382.3 300.0 C 1371.5 313.0 1357.9 323.9 1348.4 334.9 C 1339.0 345.8 1332.4 355.4 1325.8 365.5 C 1319.2 375.6 1315.2 386.0 1308.7 395.5 C 1302.1 405.1 1294.9 414.6 1286.3 422.9 C 1277.7 431.2 1267.0 438.1 1257.1 445.2 C 1247.2 452.3 1236.8 458.5 1226.8 465.7 C 1216.8 472.9 1207.7 480.9 1197.1 488.5 C 1186.6 496.1 1175.9 504.9 1163.7 511.2 C 1151.4 517.4 1137.6 522.7 1123.6 525.9 C 1109.7 529.0 1094.7 529.2 1080.0 530.1 C 1065.3 530.9 1050.9 530.1 1035.4 531.1 C 1019.8 532.1 1003.8 534.7 986.5 536.1 C 969.1 537.4 949.0 541.0 931.4 539.2 C 913.7 537.4 893.6 533.9 880.7 525.0 C 867.7 516.0 857.4 501.0 853.9 485.4 C 850.3 469.8 854.9 448.5 859.3 431.5 C 863.7 414.5 875.6 396.8 880.2 383.5 C 884.8 370.1 889.4 360.7 886.8 351.5 C 884.1 342.2 874.3 336.6 864.2 328.0 C 854.2 319.4 837.1 310.7 826.3 300.0 C 815.5 289.3 804.2 276.1 799.3 263.5 C 794.4 251.0 794.7 237.1 797.0 224.6 C 799.3 212.1 806.7 200.2 813.3 188.6 C 819.8 176.9 828.0 165.9 836.4 154.9 C 844.9 143.9 853.4 132.5 863.9 122.8 C 874.5 113.2 886.5 103.6 900.0 96.8 C 913.4 90.1 929.4 85.5 944.7 82.3 C 960.0 79.1 976.5 78.7 991.9 77.6 C 1007.2 76.4 1022.0 76.1 1036.6 75.6 C 1051.3 75.0 1065.7 73.3 1080.0 74.2 C 1094.3 75.0 1109.3 76.1 1122.3 80.8 C 1135.4 85.5 1148.0 93.8 1158.3 102.5 C 1168.5 111.1 1175.6 124.0 1183.8 133.0 C 1192.0 141.9 1196.9 151.1 1207.5 156.1 C 1218.0 161.1 1230.1 161.8 1247.0 163.0 C 1264.0 164.3 1287.7 161.2 1309.1 163.5 C 1330.6 165.7 1357.9 168.6 1375.6 176.5 C 1393.3 184.3 1409.3 197.2 1415.6 210.6 C 1421.8 224.0 1418.9 241.8 1413.4 256.7 C 1407.9 271.6 1393.1 287.0 1382.3 300.0 Z"/><path d="M 1420.7 300.0 C 1409.1 314.9 1397.5 327.4 1388.3 340.0 C 1379.1 352.7 1373.2 364.5 1365.7 376.1 C 1358.2 387.8 1351.6 399.3 1343.2 410.0 C 1334.8 420.6 1324.8 430.3 1315.2 440.1 C 1305.7 449.9 1295.4 458.7 1285.9 468.8 C 1276.3 479.0 1268.0 489.9 1258.1 501.0 C 1248.2 512.2 1238.8 525.5 1226.5 535.8 C 1214.2 546.1 1199.8 556.5 1184.2 562.9 C 1168.6 569.3 1150.3 572.2 1133.0 574.3 C 1115.6 576.3 1097.8 574.4 1080.0 575.3 C 1062.2 576.2 1045.1 577.1 1026.0 579.4 C 1006.9 581.8 986.3 587.8 965.3 589.6 C 944.2 591.3 919.3 594.6 899.9 589.9 C 880.4 585.2 859.9 575.6 848.4 561.3 C 837.0 547.0 831.7 524.3 831.0 504.1 C 830.4 484.0 839.8 458.9 844.7 440.2 C 849.5 421.5 859.5 405.0 860.0 391.9 C 860.6 378.8 856.7 371.3 847.7 361.9 C 838.7 352.5 820.7 345.9 806.2 335.6 C 791.7 325.2 772.3 313.4 760.7 300.0 C 749.1 286.6 740.2 270.6 736.4 255.4 C 732.7 240.2 734.9 224.1 738.0 208.9 C 741.1 193.7 747.9 178.7 755.1 164.3 C 762.3 149.8 770.6 135.1 781.3 122.0 C 791.9 109.0 804.3 95.9 819.2 86.1 C 834.0 76.3 852.2 68.6 870.2 63.2 C 888.1 57.8 908.5 56.1 926.9 53.6 C 945.2 51.1 963.1 50.5 980.2 48.2 C 997.4 45.9 1013.1 42.1 1029.7 39.7 C 1046.4 37.4 1063.4 33.2 1080.0 34.1 C 1096.6 35.0 1114.4 38.1 1129.3 44.9 C 1144.1 51.7 1157.5 64.4 1169.2 74.9 C 1180.9 85.3 1188.3 99.6 1199.5 107.7 C 1210.7 115.8 1220.0 121.2 1236.4 123.5 C 1252.8 125.8 1274.0 121.7 1297.7 121.5 C 1321.4 121.2 1353.6 118.0 1378.6 122.1 C 1403.7 126.2 1432.0 134.1 1448.1 146.2 C 1464.2 158.3 1473.8 177.2 1475.4 194.6 C 1477.1 212.1 1467.2 233.3 1458.0 250.9 C 1448.9 268.5 1432.3 285.1 1420.7 300.0 Z"/><path d="M 1456.8 300.0 C 1445.4 316.5 1435.8 330.8 1426.4 345.0 C 1417.0 359.2 1409.6 372.5 1400.5 385.4 C 1391.5 398.3 1381.8 410.1 1372.4 422.2 C 1363.1 434.2 1353.0 444.9 1344.4 457.5 C 1335.9 470.1 1329.1 483.2 1321.2 497.8 C 1313.3 512.4 1307.4 529.8 1297.1 545.0 C 1286.8 560.1 1274.8 577.2 1259.4 588.7 C 1244.0 600.3 1224.1 609.0 1204.5 614.1 C 1184.9 619.3 1162.5 618.4 1141.7 619.5 C 1121.0 620.6 1101.0 618.6 1080.0 620.6 C 1059.0 622.7 1038.7 627.7 1015.9 631.8 C 993.1 636.0 967.3 644.7 943.2 645.3 C 919.1 645.9 891.2 645.1 871.6 635.4 C 852.0 625.8 834.4 607.4 825.5 587.2 C 816.7 567.0 817.4 537.6 818.7 514.3 C 819.9 491.0 830.8 465.6 833.1 447.1 C 835.4 428.6 838.5 415.4 832.4 403.4 C 826.4 391.5 812.2 385.3 796.9 375.4 C 781.5 365.6 757.6 356.7 740.2 344.1 C 722.9 331.6 704.2 316.2 692.8 300.0 C 681.4 283.8 675.0 265.0 671.8 247.0 C 668.7 229.0 670.6 210.0 673.9 191.8 C 677.2 173.6 682.9 154.8 691.7 137.8 C 700.4 120.7 711.5 103.1 726.3 89.3 C 741.2 75.5 760.7 63.3 781.0 54.8 C 801.3 46.3 826.1 42.2 848.0 38.2 C 869.9 34.1 892.5 33.8 912.6 30.5 C 932.6 27.2 950.1 23.3 968.4 18.3 C 986.7 13.4 1003.6 4.8 1022.2 0.7 C 1040.8 -3.3 1061.1 -7.9 1080.0 -5.8 C 1098.9 -3.8 1118.9 3.9 1135.4 13.1 C 1152.0 22.3 1165.5 38.7 1179.3 49.4 C 1193.1 60.1 1202.5 72.1 1218.4 77.2 C 1234.3 82.4 1251.2 81.4 1274.6 80.4 C 1298.0 79.4 1329.5 71.6 1358.9 71.3 C 1388.3 71.1 1425.4 70.9 1451.1 78.9 C 1476.9 86.8 1501.1 101.9 1513.2 119.0 C 1525.2 136.2 1526.5 160.7 1523.5 181.8 C 1520.4 203.0 1505.9 226.4 1494.8 246.1 C 1483.7 265.8 1468.2 283.5 1456.8 300.0 Z"/><path d="M 1491.5 300.0 C 1480.3 317.9 1470.6 333.9 1460.1 349.4 C 1449.7 364.9 1438.9 378.9 1428.8 392.9 C 1418.8 407.0 1407.9 419.3 1399.8 433.6 C 1391.7 447.9 1385.8 461.9 1380.3 478.9 C 1374.9 495.9 1373.6 516.0 1367.3 535.6 C 1361.1 555.3 1355.4 579.0 1343.0 596.9 C 1330.7 614.8 1313.1 632.3 1293.1 643.0 C 1273.1 653.7 1247.0 658.0 1223.1 661.2 C 1199.2 664.3 1173.8 660.7 1149.9 661.9 C 1126.0 663.1 1104.1 664.2 1080.0 668.6 C 1055.9 673.0 1031.3 683.2 1005.0 688.2 C 978.7 693.1 948.0 701.4 922.1 698.5 C 896.2 695.5 868.0 686.7 849.8 670.5 C 831.6 654.3 819.2 626.5 813.0 601.3 C 806.8 576.2 811.7 543.5 812.4 519.4 C 813.1 495.3 820.2 473.3 816.9 456.7 C 813.6 440.2 806.2 430.9 792.6 420.1 C 778.9 409.3 755.6 403.0 735.1 391.9 C 714.7 380.7 688.6 368.6 670.0 353.3 C 651.4 337.9 634.7 319.2 623.5 300.0 C 612.3 280.8 606.2 259.2 602.8 238.0 C 599.4 216.9 599.4 194.3 603.3 173.0 C 607.2 151.7 613.9 129.2 626.4 110.5 C 638.8 91.7 656.9 73.6 678.1 60.6 C 699.3 47.6 727.8 38.9 753.6 32.3 C 779.4 25.7 808.6 25.0 832.8 21.1 C 857.1 17.1 878.7 15.0 899.1 8.8 C 919.4 2.7 935.7 -7.4 954.9 -15.8 C 974.1 -24.1 993.3 -36.5 1014.1 -41.1 C 1035.0 -45.7 1058.9 -47.5 1080.0 -43.2 C 1101.1 -38.8 1122.4 -25.6 1140.8 -14.8 C 1159.2 -4.0 1173.2 13.0 1190.3 21.5 C 1207.5 30.1 1221.7 35.7 1243.8 36.3 C 1266.0 37.0 1292.8 28.9 1323.2 25.5 C 1353.6 22.2 1393.5 14.0 1426.2 16.1 C 1458.8 18.3 1495.8 24.9 1519.1 38.4 C 1542.4 51.8 1559.1 74.7 1566.0 97.0 C 1572.9 119.2 1567.1 147.8 1560.6 171.9 C 1554.2 196.1 1538.8 220.6 1527.3 241.9 C 1515.8 263.3 1502.7 282.1 1491.5 300.0 Z"/><path d="M 1522.8 300.0 C 1511.0 319.1 1498.4 336.3 1486.7 352.8 C 1475.0 369.4 1461.7 383.6 1452.6 399.3 C 1443.6 415.0 1436.2 429.1 1432.4 447.2 C 1428.5 465.4 1430.6 485.5 1429.4 508.2 C 1428.2 530.8 1431.3 558.9 1425.2 583.0 C 1419.0 607.2 1409.4 634.4 1392.6 652.8 C 1375.9 671.3 1350.0 685.2 1324.5 693.5 C 1299.0 701.8 1267.2 700.7 1239.5 702.5 C 1211.7 704.2 1184.6 700.8 1158.0 703.9 C 1131.4 707.0 1107.3 714.0 1080.0 720.8 C 1052.7 727.7 1023.3 741.5 994.0 745.2 C 964.8 748.9 930.7 751.9 904.5 743.0 C 878.2 734.1 852.6 714.5 836.6 691.7 C 820.6 669.0 813.7 634.2 808.5 606.4 C 803.3 578.7 808.4 547.5 805.3 525.3 C 802.2 503.0 800.8 486.7 789.8 472.9 C 778.8 459.1 760.2 452.7 739.6 442.2 C 719.0 431.8 689.8 423.5 666.2 410.2 C 642.6 397.0 617.0 381.0 597.8 362.6 C 578.6 344.3 562.7 322.4 550.8 300.0 C 539.0 277.6 530.4 252.6 526.7 228.1 C 522.9 203.6 521.6 176.8 528.2 153.0 C 534.8 129.2 547.2 104.3 566.3 85.4 C 585.5 66.5 614.5 50.7 643.1 39.7 C 671.7 28.7 708.2 24.7 737.9 19.5 C 767.6 14.2 797.1 14.1 821.3 8.0 C 845.5 2.0 863.6 -6.1 883.2 -16.7 C 902.9 -27.3 918.6 -44.5 939.1 -55.6 C 959.6 -66.7 982.5 -79.9 1006.0 -83.3 C 1029.4 -86.8 1056.6 -83.1 1080.0 -76.2 C 1103.4 -69.3 1125.3 -52.3 1146.1 -42.1 C 1166.9 -31.9 1182.9 -19.0 1204.8 -15.0 C 1226.8 -11.1 1248.7 -14.5 1277.9 -18.4 C 1307.0 -22.3 1344.1 -35.1 1379.8 -38.4 C 1415.6 -41.7 1459.9 -45.5 1492.6 -38.3 C 1525.3 -31.2 1557.3 -15.4 1576.2 4.4 C 1595.0 24.2 1603.2 53.8 1605.6 80.4 C 1608.0 107.0 1598.6 137.7 1590.6 164.0 C 1582.7 190.2 1569.1 215.3 1557.8 237.9 C 1546.5 260.6 1534.7 280.9 1522.8 300.0 Z"/><path d="M 1547.5 300.0 C 1534.2 320.2 1517.8 337.7 1506.4 355.4 C 1494.9 373.1 1483.3 387.7 1478.7 406.2 C 1474.1 424.8 1476.1 443.1 1478.9 466.7 C 1481.6 490.2 1493.1 518.9 1495.2 547.4 C 1497.3 575.8 1500.6 610.8 1491.5 637.5 C 1482.5 664.1 1464.1 690.6 1440.7 707.1 C 1417.3 723.6 1382.4 731.2 1351.3 736.6 C 1320.2 742.0 1284.9 737.5 1254.2 739.5 C 1223.4 741.5 1195.7 742.5 1166.6 748.6 C 1137.6 754.7 1110.4 768.2 1080.0 776.2 C 1049.6 784.3 1015.3 797.2 984.0 796.8 C 952.8 796.3 917.8 789.6 892.4 773.5 C 867.0 757.3 845.8 727.4 831.5 700.0 C 817.2 672.5 813.5 635.6 806.6 608.6 C 799.7 581.5 799.7 556.3 790.1 537.7 C 780.4 519.2 767.7 508.9 748.7 497.4 C 729.7 485.9 702.1 480.0 676.3 468.7 C 650.5 457.3 619.5 445.5 594.0 429.5 C 568.5 413.4 543.8 393.9 523.3 372.3 C 502.9 350.7 484.8 325.8 471.5 300.0 C 458.2 274.2 446.3 245.1 443.6 217.3 C 440.9 189.6 442.6 158.8 455.4 133.6 C 468.1 108.4 491.9 83.6 520.2 66.1 C 548.4 48.6 589.6 37.5 624.7 28.8 C 659.8 20.0 700.1 19.5 730.7 13.6 C 761.3 7.7 786.2 3.8 808.2 -6.7 C 830.3 -17.2 843.9 -34.1 862.8 -49.6 C 881.7 -65.1 899.1 -87.4 921.7 -99.6 C 944.2 -111.8 971.9 -121.8 998.3 -122.9 C 1024.7 -123.9 1054.3 -114.1 1080.0 -106.1 C 1105.7 -98.1 1128.2 -81.4 1152.4 -74.7 C 1176.5 -67.9 1197.0 -63.7 1224.9 -65.7 C 1252.8 -67.6 1284.3 -79.6 1320.0 -86.2 C 1355.7 -92.8 1400.6 -105.2 1439.1 -105.2 C 1477.5 -105.2 1520.9 -100.2 1550.9 -86.2 C 1581.0 -72.2 1605.2 -46.9 1619.2 -21.2 C 1633.2 4.5 1635.3 38.4 1635.0 68.1 C 1634.7 97.8 1625.5 129.1 1617.3 156.8 C 1609.2 184.5 1597.7 210.4 1586.1 234.3 C 1574.5 258.1 1560.8 279.8 1547.5 300.0 Z"/><path d="M 319.9 880.0 C 320.1 882.6 320.6 885.3 320.0 887.8 C 319.4 890.3 318.5 893.0 316.6 895.1 C 314.6 897.1 311.4 898.9 308.2 900.2 C 305.0 901.4 300.7 901.7 297.5 902.3 C 294.3 902.9 291.0 902.8 288.9 903.7 C 286.8 904.6 285.8 905.8 284.8 908.0 C 283.7 910.1 283.8 913.4 282.7 916.5 C 281.6 919.5 280.4 923.6 278.3 926.3 C 276.2 928.9 273.2 931.4 270.1 932.4 C 267.1 933.5 263.3 933.2 260.0 932.6 C 256.7 932.0 253.5 930.1 250.6 928.8 C 247.6 927.5 245.0 925.8 242.3 924.6 C 239.6 923.3 237.0 922.4 234.4 921.2 C 231.8 920.0 229.0 919.0 226.8 917.5 C 224.5 916.0 222.4 914.2 220.7 912.2 C 219.1 910.2 218.0 907.8 217.0 905.6 C 215.9 903.4 215.3 901.2 214.4 899.0 C 213.6 896.9 212.7 894.9 211.9 892.8 C 211.2 890.7 210.3 888.6 210.0 886.5 C 209.6 884.4 209.7 882.1 209.9 880.0 C 210.1 877.9 211.0 875.8 211.4 873.7 C 211.7 871.5 212.1 869.6 211.9 867.2 C 211.7 864.8 210.8 862.2 210.2 859.2 C 209.6 856.2 208.3 852.5 208.5 849.3 C 208.6 846.1 209.2 842.3 211.1 839.9 C 213.1 837.5 216.5 835.6 220.1 835.0 C 223.7 834.4 228.7 835.2 232.7 836.1 C 236.8 837.0 241.0 839.3 244.3 840.5 C 247.7 841.7 250.3 843.0 252.9 843.3 C 255.5 843.6 257.5 843.0 260.0 842.4 C 262.5 841.8 265.1 840.3 267.8 839.7 C 270.5 839.1 273.6 838.6 276.3 838.8 C 279.1 839.0 281.8 839.9 284.3 840.8 C 286.8 841.8 289.1 843.3 291.4 844.5 C 293.8 845.8 296.1 847.1 298.5 848.4 C 300.9 849.8 303.6 851.0 306.0 852.6 C 308.3 854.2 310.7 856.0 312.4 858.1 C 314.2 860.1 315.5 862.6 316.5 864.9 C 317.6 867.3 318.0 869.9 318.6 872.4 C 319.2 874.9 319.7 877.4 319.9 880.0 Z"/><path d="M 371.6 880.0 C 372.2 884.7 373.1 889.9 371.4 894.5 C 369.8 899.0 366.6 903.8 362.0 907.2 C 357.4 910.6 350.0 913.1 343.8 915.0 C 337.6 916.9 329.9 917.2 324.9 918.7 C 319.8 920.1 316.0 920.9 313.6 923.9 C 311.1 926.9 311.2 931.3 310.0 936.5 C 308.9 941.7 309.0 949.3 306.7 955.2 C 304.5 961.1 301.0 968.0 296.5 972.0 C 291.9 976.1 285.3 978.6 279.2 979.5 C 273.1 980.3 266.1 978.6 260.0 977.0 C 253.9 975.5 248.1 972.4 242.6 970.2 C 237.1 967.9 232.0 965.7 226.9 963.4 C 221.9 961.2 216.8 959.4 212.2 956.9 C 207.7 954.3 203.2 951.5 199.6 948.2 C 195.9 944.9 193.0 940.9 190.2 937.2 C 187.5 933.5 185.5 929.5 183.1 925.8 C 180.7 922.2 178.1 918.8 175.7 915.2 C 173.2 911.7 170.3 908.2 168.4 904.4 C 166.5 900.6 165.0 896.5 164.5 892.4 C 164.1 888.3 165.1 884.1 165.6 880.0 C 166.2 875.9 167.9 872.2 168.0 868.0 C 168.1 863.9 167.4 859.9 166.1 855.0 C 164.8 850.0 161.6 844.3 160.2 838.3 C 158.9 832.4 156.9 825.0 158.2 819.4 C 159.5 813.7 162.8 807.7 167.9 804.5 C 173.0 801.2 181.4 799.8 189.0 799.8 C 196.5 799.9 205.9 802.7 213.2 804.7 C 220.5 806.6 227.2 810.0 232.8 811.4 C 238.4 812.7 242.5 813.2 247.0 812.6 C 251.5 812.1 255.4 809.7 260.0 808.1 C 264.6 806.6 269.7 804.2 274.8 803.3 C 279.9 802.4 285.4 802.3 290.6 802.8 C 295.7 803.3 300.7 804.9 305.8 806.4 C 310.8 807.8 315.6 809.7 320.6 811.6 C 325.7 813.5 331.1 815.3 335.9 817.8 C 340.7 820.3 345.8 823.1 349.7 826.5 C 353.6 830.0 356.8 834.3 359.2 838.5 C 361.7 842.8 362.9 847.6 364.3 852.2 C 365.8 856.8 366.8 861.3 368.0 866.0 C 369.2 870.6 371.1 875.3 371.6 880.0 Z"/><path d="M 423.5 880.0 C 424.0 886.9 423.9 894.5 420.2 900.8 C 416.4 907.1 408.9 913.2 401.1 917.6 C 393.2 922.0 381.4 924.5 373.0 927.2 C 364.6 930.0 355.8 930.7 350.6 934.0 C 345.5 937.3 343.6 941.0 342.0 947.2 C 340.4 953.5 342.2 962.6 340.9 971.3 C 339.7 980.1 338.6 991.5 334.3 999.6 C 330.1 1007.7 323.1 1015.5 315.4 1019.7 C 307.7 1024.0 297.3 1025.3 288.1 1025.3 C 278.8 1025.4 268.9 1022.4 260.0 1020.0 C 251.1 1017.6 242.7 1014.1 234.7 1011.1 C 226.6 1008.0 219.0 1005.2 211.8 1001.6 C 204.6 998.1 197.7 994.4 191.7 989.9 C 185.7 985.5 180.6 980.1 175.8 975.0 C 171.0 970.0 167.4 964.4 163.1 959.5 C 158.7 954.6 154.5 950.2 149.7 945.7 C 145.0 941.2 139.1 937.3 134.5 932.4 C 129.9 927.6 124.9 922.4 122.2 916.7 C 119.5 911.0 118.6 904.5 118.5 898.4 C 118.3 892.3 120.9 886.1 121.5 880.0 C 122.0 873.9 123.2 868.6 121.9 862.1 C 120.6 855.6 116.9 848.9 113.9 841.1 C 110.9 833.2 105.2 823.6 103.9 814.8 C 102.7 806.0 102.2 795.5 106.3 788.4 C 110.4 781.3 118.9 775.0 128.5 772.1 C 138.0 769.2 152.0 769.9 163.4 771.0 C 174.9 772.1 187.4 776.7 197.2 778.9 C 207.0 781.1 214.8 783.9 222.0 784.2 C 229.3 784.5 234.5 782.7 240.8 780.7 C 247.2 778.8 253.2 774.7 260.0 772.4 C 266.8 770.0 274.4 767.5 281.9 766.5 C 289.4 765.5 297.3 765.7 305.1 766.1 C 312.9 766.6 320.8 767.9 328.8 769.3 C 336.8 770.7 345.3 772.2 353.3 774.7 C 361.3 777.2 369.8 780.1 376.6 784.4 C 383.4 788.6 389.6 794.2 394.1 800.1 C 398.6 806.1 401.0 813.3 403.6 820.0 C 406.1 826.7 407.2 833.6 409.4 840.2 C 411.6 846.8 414.4 853.0 416.7 859.6 C 419.1 866.3 422.9 873.1 423.5 880.0 Z"/><path d="M 474.1 880.0 C 473.7 888.9 470.1 898.7 463.2 906.4 C 456.3 914.1 443.4 920.7 432.6 926.0 C 421.9 931.2 407.5 933.7 398.7 938.0 C 389.9 942.2 383.2 944.9 379.7 951.3 C 376.2 957.7 378.0 966.2 377.6 976.4 C 377.2 986.6 379.8 1000.8 377.5 1012.6 C 375.2 1024.4 371.1 1038.0 363.8 1047.1 C 356.6 1056.1 345.2 1063.0 334.0 1066.7 C 322.8 1070.4 308.9 1070.1 296.6 1069.3 C 284.2 1068.6 271.6 1065.1 260.0 1062.1 C 248.4 1059.1 237.3 1055.4 226.9 1051.2 C 216.6 1047.0 206.6 1042.4 197.9 1036.8 C 189.1 1031.3 181.3 1024.5 174.2 1018.0 C 167.2 1011.5 161.8 1004.0 155.6 997.9 C 149.3 991.7 143.8 986.1 136.7 981.1 C 129.7 976.0 121.3 972.3 113.3 967.4 C 105.4 962.4 95.6 957.7 89.1 951.4 C 82.6 945.1 77.0 937.3 74.3 929.5 C 71.6 921.6 72.8 912.5 73.1 904.3 C 73.4 896.0 76.6 888.2 76.1 880.0 C 75.7 871.8 73.8 864.5 70.1 855.3 C 66.4 846.2 58.4 836.1 54.1 825.1 C 49.8 814.2 43.5 800.7 44.1 789.8 C 44.7 778.8 49.0 766.8 57.7 759.5 C 66.4 752.1 81.9 747.5 96.2 745.7 C 110.5 743.8 129.1 746.8 143.6 748.6 C 158.1 750.4 171.9 755.0 183.1 756.3 C 194.4 757.6 202.5 757.8 211.0 756.3 C 219.5 754.7 226.1 750.4 234.3 747.0 C 242.5 743.6 250.9 738.8 260.0 735.8 C 269.1 732.7 279.1 730.4 289.2 728.9 C 299.3 727.3 309.9 726.7 320.8 726.5 C 331.8 726.2 343.5 726.0 354.9 727.2 C 366.4 728.5 379.0 730.0 389.5 733.8 C 400.0 737.7 410.5 743.3 418.2 750.3 C 425.8 757.2 431.1 766.7 435.3 775.6 C 439.6 784.4 440.8 794.4 443.8 803.2 C 446.7 812.1 449.1 820.3 452.8 828.6 C 456.6 837.0 462.6 844.7 466.2 853.2 C 469.7 861.8 474.6 871.1 474.1 880.0 Z"/><path d="M 520.8 880.0 C 517.8 890.7 508.6 902.1 498.2 910.9 C 487.8 919.7 470.4 926.4 458.4 932.9 C 446.4 939.3 433.2 942.7 426.3 949.5 C 419.3 956.2 417.7 963.0 416.9 973.5 C 416.1 983.9 421.2 998.2 421.3 1012.3 C 421.5 1026.4 422.5 1044.4 417.8 1058.1 C 413.1 1071.8 404.2 1085.5 393.2 1094.4 C 382.2 1103.3 366.4 1108.5 351.7 1111.4 C 337.0 1114.3 320.1 1113.3 304.8 1112.0 C 289.5 1110.6 274.2 1107.4 260.0 1103.4 C 245.8 1099.5 232.1 1094.5 219.8 1088.3 C 207.5 1082.1 196.2 1074.1 186.3 1066.1 C 176.4 1058.1 168.6 1048.2 160.3 1040.4 C 152.1 1032.5 145.7 1024.8 136.9 1019.0 C 128.1 1013.1 118.4 1009.5 107.4 1005.1 C 96.5 1000.7 82.5 997.9 71.3 992.4 C 60.2 986.8 47.7 980.2 40.3 971.8 C 32.9 963.4 28.9 952.4 26.9 942.1 C 24.9 931.8 28.3 920.4 28.3 910.1 C 28.3 899.7 29.8 890.4 26.8 880.0 C 23.8 869.6 16.7 859.6 10.3 847.6 C 3.9 835.5 -7.4 821.3 -11.4 807.7 C -15.5 794.0 -18.7 777.6 -13.9 765.6 C -9.1 753.5 2.9 742.0 17.2 735.4 C 31.6 728.8 53.7 726.7 72.0 725.9 C 90.4 725.0 111.3 729.1 127.4 730.4 C 143.6 731.6 157.0 734.2 168.9 733.5 C 180.9 732.7 189.3 729.7 199.0 726.1 C 208.8 722.5 217.4 716.5 227.5 711.9 C 237.7 707.2 248.4 702.3 260.0 698.3 C 271.6 694.4 283.9 691.2 297.0 688.2 C 310.2 685.3 324.3 682.3 338.9 680.9 C 353.5 679.4 369.9 677.7 384.6 679.4 C 399.3 681.2 415.2 684.7 427.2 691.2 C 439.3 697.8 449.5 708.2 456.8 718.7 C 464.0 729.2 467.0 742.8 471.0 754.3 C 475.0 765.8 476.2 777.4 480.5 787.9 C 484.8 798.3 490.8 807.1 496.8 816.9 C 502.7 826.7 512.2 836.2 516.2 846.7 C 520.2 857.2 523.8 869.3 520.8 880.0 Z"/><path d="M 560.3 880.0 C 553.7 892.3 538.3 904.6 525.6 914.5 C 512.8 924.4 494.2 931.3 483.6 939.6 C 473.0 947.9 465.0 953.9 461.9 964.3 C 458.7 974.7 463.1 987.1 464.7 1002.0 C 466.3 1016.8 472.5 1036.3 471.5 1053.4 C 470.5 1070.5 467.2 1090.1 458.8 1104.4 C 450.5 1118.8 436.2 1131.1 421.1 1139.3 C 406.1 1147.6 386.6 1151.6 368.6 1154.0 C 350.5 1156.4 331.0 1155.7 312.9 1153.7 C 294.8 1151.8 276.5 1148.0 260.0 1142.2 C 243.5 1136.4 227.5 1128.2 213.8 1119.1 C 200.1 1110.0 188.5 1097.8 177.7 1087.7 C 166.8 1077.7 159.0 1066.6 148.8 1059.0 C 138.5 1051.4 129.0 1046.5 116.2 1042.3 C 103.3 1038.2 87.3 1037.9 71.9 1034.3 C 56.5 1030.7 37.3 1027.7 23.7 1020.8 C 10.2 1013.8 -2.3 1003.6 -9.3 992.5 C -16.4 981.4 -17.2 967.0 -18.6 954.2 C -20.1 941.5 -16.2 928.5 -18.0 916.1 C -19.9 903.7 -23.2 892.9 -29.7 880.0 C -36.3 867.1 -49.2 853.8 -57.2 838.8 C -65.1 823.8 -76.4 805.8 -77.5 790.1 C -78.6 774.4 -74.7 756.8 -63.8 744.7 C -53.0 732.6 -32.3 723.2 -12.6 717.6 C 7.1 712.0 33.5 712.1 54.3 711.3 C 75.1 710.5 95.6 713.5 112.1 713.0 C 128.6 712.5 140.9 711.5 153.3 708.3 C 165.7 705.1 175.1 699.3 186.3 693.9 C 197.5 688.5 208.3 681.8 220.6 675.9 C 232.9 670.0 245.7 664.2 260.0 658.4 C 274.3 652.6 289.4 646.4 306.1 641.3 C 322.8 636.1 341.6 629.8 360.0 627.6 C 378.4 625.4 399.5 624.0 416.6 627.9 C 433.8 631.8 450.9 640.2 462.9 650.9 C 475.0 661.7 482.7 677.9 489.1 692.2 C 495.4 706.4 496.5 722.9 501.1 736.4 C 505.6 749.8 509.4 761.5 516.4 772.9 C 523.3 784.3 534.4 793.5 542.5 804.7 C 550.6 816.0 561.7 827.9 564.7 840.4 C 567.7 853.0 566.8 867.7 560.3 880.0 Z"/></svg>